Callisto-Heavy.ufo
<glyph name="exclam" format="2">
	<advance width="303"/>
	<unicode hex="0021"/>
	<outline>
		<component base="period"/>
		<contour>
			<point x="182" y="265" type="curve"/>
			<point x="202" y="495"/>
			<point x="230" y="770"/>
			<point x="230" y="790" type="curve" smooth="yes"/>
			<point x="230" y="818"/>
			<point x="60" y="818"/>
			<point x="60" y="790" type="curve" smooth="yes"/>
			<point x="60" y="770"/>
			<point x="88" y="495"/>
			<point x="108" y="265" type="curve"/>
			<point x="110" y="253"/>
			<point x="180" y="253"/>
		</contour>
	</outline>
</glyph>
<glyph name="numbersign" format="2">
	<advance width="594"/>
	<unicode hex="0023"/>
	<outline>
		<contour>
			<point x="372" y="-180" type="line" name="_corner01"/>
			<point x="512" y="735" type="line"/>
			<point x="432" y="745" type="line" name="_corner00"/>
			<point x="292" y="-170" type="line"/>
		</contour>
		<contour>
			<point x="222" y="745" type="line" name="_corner03"/>
			<point x="82" y="-170" type="line"/>
			<point x="162" y="-180" type="line" name="_corner02"/>
			<point x="302" y="735" type="line"/>
		</contour>
		<contour>
			<point x="82" y="500" type="line"/>
			<point x="72" y="390" type="line" name="_corner04"/>
			<point x="572" y="390" type="line"/>
			<point x="582" y="500" type="line" name="_corner05"/>
		</contour>
		<contour>
			<point x="22" y="175" type="line"/>
			<point x="12" y="65" type="line" name="_corner06"/>
			<point x="512" y="65" type="line"/>
			<point x="522" y="175" type="line" name="_corner07"/>
		</contour>
	</outline>
</glyph>
<glyph name="dollar" format="2">
	<advance width="583"/>
	<unicode hex="0024"/>
	<outline>
		<contour>
			<point x="50" y="225" type="curve" smooth="yes"/>
			<point x="65" y="56" type="line"/>
			<point x="120" y="13"/>
			<point x="194" y="-8"/>
			<point x="268" y="-8" type="curve" smooth="yes"/>
			<point x="415" y="-8"/>
			<point x="563" y="75"/>
			<point x="563" y="225" type="curve" smooth="yes"/>
			<point x="563" y="479"/>
			<point x="171" y="434"/>
			<point x="171" y="588" type="curve" smooth="yes"/>
			<point x="171" y="659"/>
			<point x="233" y="693"/>
			<point x="294" y="693" type="curve" smooth="yes"/>
			<point x="349" y="693"/>
			<point x="412" y="652"/>
			<point x="462" y="568" type="curve" smooth="yes"/>
			<point x="471" y="553"/>
			<point x="519" y="563"/>
			<point x="517" y="581" type="curve" smooth="yes"/>
			<point x="499" y="726" type="line"/>
			<point x="449" y="752"/>
			<point x="377" y="769"/>
			<point x="315" y="769" type="curve" smooth="yes"/>
			<point x="183" y="769"/>
			<point x="53" y="690"/>
			<point x="53" y="541" type="curve" smooth="yes"/>
			<point x="53" y="299"/>
			<point x="425" y="366"/>
			<point x="425" y="186" type="curve" smooth="yes"/>
			<point x="425" y="108"/>
			<point x="361" y="71"/>
			<point x="292" y="71" type="curve" smooth="yes"/>
			<point x="233" y="71"/>
			<point x="162" y="114"/>
			<point x="108" y="237" type="curve" smooth="yes"/>
			<point x="102" y="251"/>
			<point x="49" y="238"/>
		</contour>
		<contour>
			<point x="280" y="890" type="line" name="_corner01"/>
			<point x="220" y="-130" type="line"/>
			<point x="300" y="-135" type="line" name="_corner00"/>
			<point x="360" y="885" type="line"/>
		</contour>
	</outline>
</glyph>
<glyph name="percent" format="2">
	<advance width="947"/>
	<unicode hex="0025"/>
	<outline>
		<contour>
			<point x="165" y="-35" type="line" name="_corner01"/>
			<point x="865" y="715" type="line"/>
			<point x="780" y="795" type="line" name="_corner00"/>
			<point x="80" y="45" type="line"/>
		</contour>
		<contour>
			<point x="188" y="380" type="curve" smooth="yes"/>
			<point x="297" y="380"/>
			<point x="393" y="460"/>
			<point x="401" y="580" type="curve" smooth="yes"/>
			<point x="409" y="700"/>
			<point x="325" y="780"/>
			<point x="214" y="780" type="curve" smooth="yes"/>
			<point x="105" y="780"/>
			<point x="9" y="700"/>
			<point x="1" y="580" type="curve" smooth="yes"/>
			<point x="-7" y="460"/>
			<point x="77" y="380"/>
		</contour>
		<contour>
			<point x="207" y="490" type="curve" smooth="yes"/>
			<point x="158" y="490"/>
			<point x="118" y="523"/>
			<point x="115" y="580" type="curve" smooth="yes"/>
			<point x="111" y="637"/>
			<point x="146" y="670"/>
			<point x="195" y="670" type="curve" smooth="yes"/>
			<point x="244" y="670"/>
			<point x="284" y="637"/>
			<point x="287" y="580" type="curve" smooth="yes"/>
			<point x="291" y="523"/>
			<point x="256" y="490"/>
		</contour>
		<contour>
			<point x="733" y="-20" type="curve" smooth="yes"/>
			<point x="842" y="-20"/>
			<point x="938" y="60"/>
			<point x="946" y="180" type="curve" smooth="yes"/>
			<point x="954" y="300"/>
			<point x="870" y="380"/>
			<point x="759" y="380" type="curve" smooth="yes"/>
			<point x="650" y="380"/>
			<point x="554" y="300"/>
			<point x="546" y="180" type="curve" smooth="yes"/>
			<point x="538" y="60"/>
			<point x="622" y="-20"/>
		</contour>
		<contour>
			<point x="752" y="90" type="curve" smooth="yes"/>
			<point x="703" y="90"/>
			<point x="663" y="123"/>
			<point x="660" y="180" type="curve" smooth="yes"/>
			<point x="656" y="237"/>
			<point x="691" y="270"/>
			<point x="740" y="270" type="curve" smooth="yes"/>
			<point x="789" y="270"/>
			<point x="829" y="237"/>
			<point x="832" y="180" type="curve" smooth="yes"/>
			<point x="836" y="123"/>
			<point x="801" y="90"/>
		</contour>
	</outline>
</glyph>
<glyph name="ampersand" format="2">
	<advance width="823"/>
	<unicode hex="0026"/>
	<outline>
		<contour>
			<point x="241" y="488" type="curve"/>
			<point x="278" y="439" type="line"/>
			<point x="346" y="482"/>
			<point x="438" y="530"/>
			<point x="438" y="625" type="curve" smooth="yes"/>
			<point x="438" y="689"/>
			<point x="398" y="770"/>
			<point x="281" y="770" type="curve" smooth="yes"/>
			<point x="203" y="770"/>
			<point x="90" y="733"/>
			<point x="90" y="600" type="curve" smooth="yes"/>
			<point x="90" y="533"/>
			<point x="145" y="471"/>
			<point x="219" y="379" type="curve" smooth="yes"/>
			<point x="458" y="82" type="line" smooth="yes"/>
			<point x="556" y="-40"/>
			<point x="700" y="-31"/>
			<point x="801" y="74" type="curve"/>
			<point x="764" y="110" type="line" name="_corner00"/>
			<point x="735" y="93"/>
			<point x="708" y="85"/>
			<point x="685" y="85" type="curve" smooth="yes"/>
			<point x="642" y="85"/>
			<point x="609" y="109"/>
			<point x="581" y="143" type="curve" smooth="yes"/>
			<point x="291" y="499" type="line" smooth="yes"/>
			<point x="245" y="556"/>
			<point x="190" y="612"/>
			<point x="190" y="650" type="curve" smooth="yes"/>
			<point x="190" y="685"/>
			<point x="211" y="708"/>
			<point x="249" y="708" type="curve" smooth="yes"/>
			<point x="278" y="708"/>
			<point x="325" y="676"/>
			<point x="325" y="620" type="curve" smooth="yes"/>
			<point x="325" y="560"/>
			<point x="289" y="520"/>
		</contour>
		<contour>
			<point x="492" y="177" type="line"/>
			<point x="540" y="127" type="line"/>
			<point x="700" y="350" type="line" name="_corner01"/>
			<point x="610" y="350" type="line" name="_corner02"/>
		</contour>
		<contour>
			<point x="490" y="87" type="curve"/>
			<point x="462" y="137" type="line"/>
			<point x="310" y="30"/>
			<point x="160" y="130"/>
			<point x="160" y="265" type="curve" smooth="yes"/>
			<point x="160" y="341"/>
			<point x="205" y="412"/>
			<point x="258" y="439" type="curve"/>
			<point x="231" y="498" type="line"/>
			<point x="167" y="451"/>
			<point x="20" y="380"/>
			<point x="20" y="230" type="curve" smooth="yes"/>
			<point x="20" y="79"/>
			<point x="133" y="-10"/>
			<point x="268" y="-10" type="curve" smooth="yes"/>
			<point x="348" y="-10"/>
			<point x="441" y="25"/>
		</contour>
	</outline>
</glyph>
<glyph name="quotesingle" format="2">
	<advance width="220"/>
	<unicode hex="0027"/>
	<outline>
		<contour>
			<point x="123" y="508" type="curve"/>
			<point x="163" y="623"/>
			<point x="196" y="734"/>
			<point x="200" y="754" type="curve"/>
			<point x="189" y="777"/>
			<point x="90" y="796"/>
			<point x="71" y="778" type="curve"/>
			<point x="68" y="758"/>
			<point x="61" y="642"/>
			<point x="60" y="521" type="curve"/>
			<point x="59" y="509"/>
			<point x="119" y="497"/>
		</contour>
	</outline>
</glyph>
<glyph name="parenleft" format="2">
	<advance width="350"/>
	<unicode hex="0028"/>
	<outline>
		<contour>
			<point x="290" y="800" type="line" name="_corner00"/>
			<point x="10" y="487"/>
			<point x="10" y="133"/>
			<point x="290" y="-180" type="curve"/>
			<point x="345" y="-160" type="line" name="_corner01"/>
			<point x="195" y="163"/>
			<point x="195" y="457"/>
			<point x="345" y="780" type="curve"/>
		</contour>
	</outline>
</glyph>
<glyph name="asterisk" format="2">
	<advance width="409"/>
	<unicode hex="002A"/>
	<outline>
		<contour>
			<point x="29" y="639" type="curve" smooth="yes"/>
			<point x="129" y="622" type="line" smooth="yes"/>
			<point x="139" y="621"/>
			<point x="156" y="674"/>
			<point x="147" y="679" type="curve" smooth="yes"/>
			<point x="57" y="724" type="line" smooth="yes"/>
			<point x="34" y="736"/>
			<point x="4" y="643"/>
		</contour>
		<contour>
			<point x="142" y="465" type="curve" smooth="yes"/>
			<point x="189" y="555" type="line" smooth="yes"/>
			<point x="193" y="564"/>
			<point x="148" y="597"/>
			<point x="140" y="590" type="curve" smooth="yes"/>
			<point x="69" y="518" type="line" smooth="yes"/>
			<point x="52" y="500"/>
			<point x="131" y="443"/>
		</contour>
		<contour>
			<point x="342" y="520" type="curve" smooth="yes"/>
			<point x="271" y="592" type="line" smooth="yes"/>
			<point x="264" y="599"/>
			<point x="218" y="566"/>
			<point x="223" y="556" type="curve" smooth="yes"/>
			<point x="269" y="467" type="line" smooth="yes"/>
			<point x="281" y="444"/>
			<point x="360" y="502"/>
		</contour>
		<contour>
			<point x="352" y="726" type="curve" smooth="yes"/>
			<point x="262" y="681" type="line" smooth="yes"/>
			<point x="253" y="676"/>
			<point x="270" y="623"/>
			<point x="281" y="624" type="curve" smooth="yes"/>
			<point x="380" y="641" type="line" smooth="yes"/>
			<point x="405" y="645"/>
			<point x="375" y="738"/>
		</contour>
		<contour>
			<point x="159" y="800" type="curve" smooth="yes"/>
			<point x="174" y="700" type="line" smooth="yes"/>
			<point x="176" y="690"/>
			<point x="232" y="690"/>
			<point x="234" y="700" type="curve" smooth="yes"/>
			<point x="249" y="800" type="line" smooth="yes"/>
			<point x="253" y="825"/>
			<point x="155" y="825"/>
		</contour>
	</outline>
</glyph>
<glyph name="plus" format="2">
	<advance width="622"/>
	<unicode hex="002B"/>
	<outline>
		<contour>
			<point x="351" y="470" type="line"/>
			<point x="271" y="470" type="line" name="_corner00"/>
			<point x="276" y="295" type="line"/>
			<point x="111" y="300" type="line"/>
			<point x="111" y="220" type="line" name="_corner02"/>
			<point x="276" y="225" type="line"/>
			<point x="271" y="50" type="line"/>
			<point x="351" y="50" type="line" name="_corner01"/>
			<point x="346" y="225" type="line"/>
			<point x="511" y="220" type="line"/>
			<point x="511" y="300" type="line" name="_corner03"/>
			<point x="346" y="295" type="line"/>
		</contour>
	</outline>
</glyph>
<glyph name="comma" format="2">
	<advance width="285"/>
	<unicode hex="002C"/>
	<outline>
		<contour>
			<point x="67" y="55" type="curve"/>
			<point x="136" y="3"/>
			<point x="124" y="-43"/>
			<point x="52" y="-135" type="curve"/>
			<point x="92" y="-170" type="line" name="_corner00"/>
			<point x="209" y="-56"/>
			<point x="286" y="89"/>
			<point x="157" y="163" type="curve"/>
			<point x="114" y="165"/>
			<point x="60" y="103"/>
		</contour>
	</outline>
</glyph>
<glyph name="hyphen" format="2">
	<advance width="448"/>
	<unicode hex="002D"/>
	<outline>
		<contour>
			<point x="77" y="280" type="line"/>
			<point x="87" y="200" type="line" name="_corner00"/>
			<point x="372" y="230" type="line"/>
			<point x="348" y="350" type="line" name="_corner01"/>
		</contour>
	</outline>
</glyph>
<glyph name="slash" format="2">
	<advance width="440"/>
	<unicode hex="002F"/>
	<outline>
		<contour>
			<point x="340" y="785" type="line" name="_corner00"/>
			<point x="30" y="-130" type="line"/>
			<point x="100" y="-150" type="line" name="_corner01"/>
			<point x="410" y="765" type="line"/>
		</contour>
	</outline>
</glyph>
<glyph name="greater" format="2">
	<advance width="498"/>
	<unicode hex="003E"/>
	<outline>
		<contour>
			<point x="52" y="70" type="line" smooth="yes"/>
			<point x="41" y="60"/>
			<point x="74" y="22"/>
			<point x="87" y="30" type="curve" smooth="yes"/>
			<point x="411" y="218" type="line" smooth="yes"/>
			<point x="442" y="236"/>
			<point x="448" y="245"/>
			<point x="448" y="250" type="curve" smooth="yes"/>
			<point x="448" y="255"/>
			<point x="442" y="264"/>
			<point x="411" y="282" type="curve" smooth="yes"/>
			<point x="87" y="470" type="line" smooth="yes"/>
			<point x="74" y="478"/>
			<point x="41" y="440"/>
			<point x="52" y="430" type="curve" smooth="yes"/>
			<point x="220" y="269" type="line" smooth="yes"/>
			<point x="233" y="256"/>
			<point x="236" y="254"/>
			<point x="236" y="250" type="curve" smooth="yes"/>
			<point x="236" y="246"/>
			<point x="233" y="244"/>
			<point x="220" y="231" type="curve" smooth="yes"/>
		</contour>
	</outline>
</glyph>
<glyph name="question" format="2">
	<advance width="466"/>
	<unicode hex="003F"/>
	<outline>
		<contour>
			<point x="396" y="597" type="curve" smooth="yes"/>
			<point x="396" y="737"/>
			<point x="251" y="811"/>
			<point x="141" y="811" type="curve" smooth="yes"/>
			<point x="110" y="811"/>
			<point x="81" y="805"/>
			<point x="44" y="785" type="curve" smooth="yes"/>
			<point x="9" y="766"/>
			<point x="36" y="624"/>
			<point x="82" y="648" type="curve" smooth="yes"/>
			<point x="188" y="704"/>
			<point x="266" y="732"/>
			<point x="266" y="630" type="curve" smooth="yes"/>
			<point x="266" y="481"/>
			<point x="-66" y="524"/>
			<point x="131" y="270" type="curve"/>
			<point x="181" y="280" type="line" name="_corner00"/>
			<point x="137" y="452"/>
			<point x="396" y="435"/>
		</contour>
		<component base="period" xOffset="26"/>
	</outline>
</glyph>
<glyph name="at" format="2">
	<advance width="1010"/>
	<unicode hex="0040"/>
	<outline>
		<contour>
			<point x="534" y="119" type="line" smooth="yes"/>
			<point x="514" y="36"/>
			<point x="619" y="-7"/>
			<point x="693" y="-7" type="curve" smooth="yes"/>
			<point x="848" y="-7"/>
			<point x="980" y="194"/>
			<point x="980" y="385" type="curve" smooth="yes"/>
			<point x="980" y="558"/>
			<point x="847" y="724"/>
			<point x="611" y="724" type="curve" smooth="yes"/>
			<point x="296" y="724"/>
			<point x="30" y="391"/>
			<point x="30" y="124" type="curve" smooth="yes"/>
			<point x="30" y="-67"/>
			<point x="138" y="-219"/>
			<point x="374" y="-219" type="curve" smooth="yes"/>
			<point x="477" y="-219"/>
			<point x="572" y="-178"/>
			<point x="637" y="-135" type="curve" smooth="yes"/>
			<point x="649" y="-127"/>
			<point x="620" y="-95"/>
			<point x="606" y="-101" type="curve" smooth="yes"/>
			<point x="288" y="-241"/>
			<point x="158" y="-68"/>
			<point x="158" y="154" type="curve" smooth="yes"/>
			<point x="158" y="383"/>
			<point x="326" y="642"/>
			<point x="569" y="642" type="curve" smooth="yes"/>
			<point x="763" y="642"/>
			<point x="868" y="510"/>
			<point x="868" y="358" type="curve" smooth="yes"/>
			<point x="868" y="205"/>
			<point x="803" y="51"/>
			<point x="719" y="51" type="curve" smooth="yes"/>
			<point x="688" y="51"/>
			<point x="654" y="69"/>
			<point x="670" y="134" type="curve" smooth="yes"/>
			<point x="754" y="480" type="line" name="_corner00"/>
			<point x="616" y="461" type="line"/>
		</contour>
		<contour>
			<point x="402" y="-10" type="curve" smooth="yes"/>
			<point x="466" y="-10"/>
			<point x="549" y="33"/>
			<point x="635" y="140" type="curve"/>
			<point x="596" y="150" type="line"/>
			<point x="533" y="95"/>
			<point x="502" y="89"/>
			<point x="463" y="89" type="curve" smooth="yes"/>
			<point x="386" y="89"/>
			<point x="398" y="147"/>
			<point x="430" y="279" type="curve" smooth="yes"/>
			<point x="451" y="365"/>
			<point x="481" y="391"/>
			<point x="517" y="391" type="curve" smooth="yes"/>
			<point x="555" y="391"/>
			<point x="600" y="361"/>
			<point x="646" y="340" type="curve"/>
			<point x="688" y="455" type="line"/>
			<point x="666" y="470"/>
			<point x="614" y="491"/>
			<point x="577" y="491" type="curve" smooth="yes"/>
			<point x="460" y="491"/>
			<point x="321" y="373"/>
			<point x="285" y="232" type="curve" smooth="yes"/>
			<point x="252" y="102"/>
			<point x="294" y="-10"/>
		</contour>
	</outline>
</glyph>
<glyph name="A" format="2">
	<advance width="750"/>
	<unicode hex="0041"/>
	<anchor x="375" y="0" name="bottom"/>
	<anchor x="675" y="10" name="ogonek"/>
	<anchor x="375" y="760" name="top"/>
	<outline>
		<contour>
			<point x="393" y="800" type="line" name="_corner04"/>
			<point x="350" y="760" type="line"/>
			<point x="252" y="684" type="line" name="_corner05"/>
			<point x="293" y="605" type="line"/>
			<point x="306" y="599" type="line"/>
			<point x="545" y="0" type="line" name="_corner01"/>
			<point x="715" y="0" type="line" name="_corner02"/>
		</contour>
		<contour>
			<point x="120" y="0" type="line" name="_corner00"/>
			<point x="400" y="700" type="line"/>
			<point x="330" y="740" type="line"/>
			<point x="25" y="0" type="line" name="_corner03"/>
		</contour>
		<contour>
			<point x="165" y="270" type="line"/>
			<point x="165" y="195" type="line"/>
			<point x="555" y="195" type="line"/>
			<point x="555" y="270" type="line"/>
		</contour>
	</outline>
</glyph>
<glyph name="B" format="2">
	<advance width="677"/>
	<unicode hex="0042"/>
	<anchor x="339" y="0" name="bottom"/>
	<anchor x="339" y="380" name="center"/>
	<anchor x="339" y="760" name="top"/>
	<outline>
		<contour>
			<point x="109" y="760" type="line" name="_corner02"/>
			<point x="109" y="0" type="line" name="_corner03"/>
			<point x="396" y="0" type="line" smooth="yes"/>
			<point x="570" y="0"/>
			<point x="657" y="110"/>
			<point x="657" y="216" type="curve" smooth="yes"/>
			<point x="657" y="300"/>
			<point x="602" y="381"/>
			<point x="493" y="404" type="curve"/>
			<point x="572" y="433"/>
			<point x="611" y="500"/>
			<point x="611" y="568" type="curve" smooth="yes"/>
			<point x="611" y="663"/>
			<point x="535" y="760"/>
			<point x="386" y="760" type="curve" smooth="yes"/>
		</contour>
		<contour>
			<point x="259" y="75" type="curve"/>
			<point x="259" y="352" type="line"/>
			<point x="274" y="353"/>
			<point x="290" y="354"/>
			<point x="307" y="354" type="curve" smooth="yes"/>
			<point x="398" y="354"/>
			<point x="505" y="331"/>
			<point x="505" y="205" type="curve" smooth="yes"/>
			<point x="505" y="104"/>
			<point x="418" y="70"/>
			<point x="324" y="70" type="curve" smooth="yes"/>
			<point x="302" y="70"/>
			<point x="280" y="72"/>
		</contour>
		<contour>
			<point x="259" y="426" type="curve"/>
			<point x="259" y="687" type="line"/>
			<point x="275" y="689"/>
			<point x="290" y="690"/>
			<point x="305" y="690" type="curve" smooth="yes"/>
			<point x="405" y="690"/>
			<point x="459" y="642"/>
			<point x="459" y="560" type="curve" smooth="yes"/>
			<point x="459" y="464"/>
			<point x="388" y="420"/>
		</contour>
	</outline>
</glyph>
<glyph name="C" format="2">
	<advance width="782"/>
	<unicode hex="0043"/>
	<anchor x="391" y="0" name="bottom"/>
	<anchor x="430" y="760" name="top"/>
	<outline>
		<contour>
			<point x="645" y="540" type="curve"/>
			<point x="705" y="560" type="line" name="_corner00"/>
			<point x="670" y="730" type="line"/>
			<point x="603" y="760"/>
			<point x="534" y="774"/>
			<point x="468" y="774" type="curve" smooth="yes"/>
			<point x="243" y="774"/>
			<point x="50" y="612"/>
			<point x="50" y="375" type="curve" smooth="yes"/>
			<point x="50" y="131"/>
			<point x="235" y="-9"/>
			<point x="410" y="-9" type="curve" smooth="yes"/>
			<point x="539" y="-9"/>
			<point x="643" y="45"/>
			<point x="730" y="145" type="curve"/>
			<point x="685" y="189" type="line" name="_corner01"/>
			<point x="613" y="129"/>
			<point x="541" y="103"/>
			<point x="475" y="103" type="curve" smooth="yes"/>
			<point x="327" y="103"/>
			<point x="212" y="236"/>
			<point x="212" y="421" type="curve" smooth="yes"/>
			<point x="212" y="579"/>
			<point x="284" y="697"/>
			<point x="429" y="697" type="curve" smooth="yes"/>
			<point x="512" y="697"/>
			<point x="585" y="631"/>
		</contour>
	</outline>
</glyph>
<glyph name="D" format="2">
	<advance width="850"/>
	<unicode hex="0044"/>
	<anchor x="425" y="0" name="bottom"/>
	<anchor x="425" y="380" name="center"/>
	<anchor x="425" y="760" name="top"/>
	<outline>
		<contour>
			<point x="366" y="0" type="line" smooth="yes"/>
			<point x="641" y="0"/>
			<point x="820" y="163"/>
			<point x="820" y="395" type="curve" smooth="yes"/>
			<point x="820" y="613"/>
			<point x="649" y="760"/>
			<point x="394" y="760" type="curve" smooth="yes"/>
			<point x="109" y="760" type="line" name="_corner01"/>
			<point x="109" y="0" type="line" name="_corner00"/>
		</contour>
		<contour>
			<point x="259" y="85" type="curve" name="_corner03"/>
			<point x="259" y="680" type="line" name="_corner02"/>
			<point x="396" y="704"/>
			<point x="663" y="683"/>
			<point x="663" y="364" type="curve" smooth="yes"/>
			<point x="663" y="85"/>
			<point x="405" y="51"/>
		</contour>
	</outline>
</glyph>
<glyph name="E" format="2">
	<advance width="711"/>
	<unicode hex="0045"/>
	<anchor x="356" y="0" name="bottom"/>
	<anchor x="640" y="10" name="ogonek"/>
	<anchor x="356" y="760" name="top"/>
	<anchor x="20" y="760" name="topleft"/>
	<outline>
		<contour>
			<point x="130" y="-1" type="line" name="_corner00"/>
			<point x="635" y="-1" type="line" name="_corner01"/>
			<point x="681" y="189" type="line"/>
			<point x="623" y="213" type="line" name="_corner05"/>
			<point x="566" y="103"/>
			<point x="487" y="75"/>
			<point x="405" y="75" type="curve" smooth="yes"/>
			<point x="278" y="75"/>
			<point x="280" y="85"/>
			<point x="280" y="144" type="curve" smooth="yes"/>
			<point x="280" y="355" type="line"/>
			<point x="384" y="355" type="line" smooth="yes"/>
			<point x="449" y="355"/>
			<point x="461" y="342"/>
			<point x="490" y="271" type="curve" smooth="yes"/>
			<point x="495" y="258"/>
			<point x="542" y="271"/>
			<point x="540" y="283" type="curve" smooth="yes"/>
			<point x="535" y="316"/>
			<point x="534" y="344"/>
			<point x="534" y="390" type="curve" smooth="yes"/>
			<point x="534" y="436"/>
			<point x="535" y="464"/>
			<point x="540" y="497" type="curve" smooth="yes"/>
			<point x="542" y="509"/>
			<point x="494" y="518"/>
			<point x="490" y="509" type="curve" smooth="yes"/>
			<point x="461" y="438"/>
			<point x="449" y="425"/>
			<point x="384" y="425" type="curve" smooth="yes"/>
			<point x="280" y="425" type="line"/>
			<point x="280" y="615" type="line" smooth="yes"/>
			<point x="280" y="674"/>
			<point x="278" y="684"/>
			<point x="405" y="684" type="curve" smooth="yes"/>
			<point x="477" y="684"/>
			<point x="536" y="676"/>
			<point x="593" y="566" type="curve"/>
			<point x="651" y="580" type="line" name="_corner03"/>
			<point x="625" y="770" type="line" name="_corner04"/>
			<point x="475" y="760" type="line"/>
			<point x="130" y="760" type="line" name="_corner02"/>
		</contour>
	</outline>
</glyph>
<glyph name="F" format="2">
	<advance width="661"/>
	<unicode hex="0046"/>
	<anchor x="331" y="0" name="bottom"/>
	<anchor x="331" y="760" name="top"/>
	<outline>
		<contour>
			<point x="130" y="-1" type="line" name="_corner03"/>
			<point x="280" y="0" type="line" name="_corner04"/>
			<point x="280" y="345" type="line"/>
			<point x="364" y="345" type="line" smooth="yes"/>
			<point x="429" y="345"/>
			<point x="451" y="332"/>
			<point x="480" y="251" type="curve" smooth="yes"/>
			<point x="485" y="238"/>
			<point x="531" y="251"/>
			<point x="530" y="263" type="curve" smooth="yes"/>
			<point x="525" y="306"/>
			<point x="524" y="344"/>
			<point x="524" y="380" type="curve" smooth="yes"/>
			<point x="524" y="416"/>
			<point x="525" y="444"/>
			<point x="530" y="487" type="curve" smooth="yes"/>
			<point x="531" y="499"/>
			<point x="484" y="508"/>
			<point x="480" y="499" type="curve" smooth="yes"/>
			<point x="451" y="428"/>
			<point x="429" y="415"/>
			<point x="364" y="415" type="curve" smooth="yes"/>
			<point x="280" y="415" type="line"/>
			<point x="280" y="615" type="line" smooth="yes"/>
			<point x="280" y="674"/>
			<point x="278" y="684"/>
			<point x="405" y="684" type="curve" smooth="yes"/>
			<point x="477" y="684"/>
			<point x="536" y="676"/>
			<point x="593" y="566" type="curve"/>
			<point x="651" y="580" type="line" name="_corner00"/>
			<point x="625" y="770" type="line" name="_corner01"/>
			<point x="475" y="760" type="line"/>
			<point x="130" y="760" type="line" name="_corner02"/>
		</contour>
	</outline>
</glyph>
<glyph name="G" format="2">
	<advance width="792"/>
	<unicode hex="0047"/>
	<anchor x="396" y="0" name="bottom"/>
	<anchor x="396" y="760" name="top"/>
	<outline>
		<contour>
			<point x="585" y="370" type="line" name="_corner01"/>
			<point x="585" y="60" type="line"/>
			<point x="710" y="115" type="line"/>
			<point x="710" y="370" type="line" name="_corner00"/>
		</contour>
		<contour>
			<point x="212" y="421" type="curve" smooth="yes"/>
			<point x="212" y="579"/>
			<point x="284" y="697"/>
			<point x="429" y="697" type="curve" smooth="yes"/>
			<point x="512" y="697"/>
			<point x="585" y="631"/>
			<point x="645" y="550" type="curve"/>
			<point x="705" y="570" type="line" name="_corner02"/>
			<point x="670" y="730" type="line"/>
			<point x="603" y="760"/>
			<point x="534" y="774"/>
			<point x="468" y="774" type="curve" smooth="yes"/>
			<point x="243" y="774"/>
			<point x="50" y="612"/>
			<point x="50" y="375" type="curve" smooth="yes"/>
			<point x="50" y="131"/>
			<point x="235" y="-9"/>
			<point x="410" y="-9" type="curve" smooth="yes"/>
			<point x="539" y="-9"/>
			<point x="643" y="51"/>
			<point x="710" y="115" type="curve"/>
			<point x="605" y="119" type="line"/>
			<point x="438" y="45"/>
			<point x="212" y="145"/>
		</contour>
	</outline>
</glyph>
<glyph name="H" format="2">
	<advance width="828"/>
	<unicode hex="0048"/>
	<anchor x="414" y="0" name="bottom"/>
	<anchor x="414" y="380" name="center"/>
	<anchor x="414" y="760" name="top"/>
	<anchor x="20" y="760" name="topleft"/>
	<outline>
		<contour>
			<point x="109" y="760" type="line" name="_corner03"/>
			<point x="109" y="0" type="line" name="_corner00"/>
			<point x="254" y="0" type="line" name="_corner01"/>
			<point x="254" y="760" type="line" name="_corner02"/>
		</contour>
		<contour>
			<point x="574" y="760" type="line" name="_corner07"/>
			<point x="574" y="0" type="line" name="_corner04"/>
			<point x="719" y="0" type="line" name="_corner05"/>
			<point x="719" y="760" type="line" name="_corner06"/>
		</contour>
		<contour>
			<point x="180" y="425" type="line"/>
			<point x="175" y="345" type="line"/>
			<point x="645" y="345" type="line"/>
			<point x="650" y="425" type="line"/>
		</contour>
	</outline>
</glyph>
<glyph name="J" format="2">
	<advance width="368"/>
	<unicode hex="004A"/>
	<anchor x="184" y="0" name="bottom"/>
	<anchor x="184" y="760" name="top"/>
	<outline>
		<contour>
			<point x="109" y="760" type="line" name="_corner01"/>
			<point x="109" y="125" type="line" smooth="yes"/>
			<point x="109" y="3"/>
			<point x="82" y="-44"/>
			<point x="-10" y="-142" type="curve"/>
			<point x="-19" y="-152"/>
			<point x="16" y="-201"/>
			<point x="30" y="-193" type="curve"/>
			<point x="176" y="-87"/>
			<point x="259" y="-32"/>
			<point x="259" y="160" type="curve" smooth="yes"/>
			<point x="259" y="760" type="line" name="_corner00"/>
		</contour>
	</outline>
</glyph>
<glyph name="K" format="2">
	<advance width="753"/>
	<unicode hex="004B"/>
	<anchor x="377" y="0" name="bottom"/>
	<anchor x="377" y="760" name="top"/>
	<outline>
		<contour>
			<point x="109" y="760" type="line" name="_corner03"/>
			<point x="109" y="0" type="line" name="_corner00"/>
			<point x="259" y="0" type="line" name="_corner01"/>
			<point x="259" y="760" type="line" name="_corner02"/>
		</contour>
		<contour>
			<point x="350" y="455" type="line"/>
			<point x="246" y="369" type="line"/>
			<point x="530" y="0" type="line"/>
			<point x="730" y="0" type="line" name="_corner04"/>
		</contour>
		<contour>
			<point x="239" y="307" type="line"/>
			<point x="569" y="620" type="line" smooth="yes"/>
			<point x="617" y="665"/>
			<point x="652" y="681"/>
			<point x="724" y="709" type="curve" smooth="yes"/>
			<point x="733" y="712"/>
			<point x="728" y="761"/>
			<point x="717" y="761" type="curve"/>
			<point x="653" y="761"/>
			<point x="637" y="760"/>
			<point x="617" y="760" type="curve"/>
			<point x="567" y="760" type="line"/>
			<point x="547" y="760"/>
			<point x="531" y="761"/>
			<point x="467" y="761" type="curve"/>
			<point x="457" y="761"/>
			<point x="452" y="715"/>
			<point x="461" y="709" type="curve" smooth="yes"/>
			<point x="506" y="679"/>
			<point x="492" y="670"/>
			<point x="411" y="587" type="curve" smooth="yes"/>
			<point x="209" y="380" type="line"/>
		</contour>
	</outline>
</glyph>
<glyph name="L" format="2">
	<advance width="711"/>
	<unicode hex="004C"/>
	<anchor x="356" y="0" name="bottom"/>
	<anchor x="356" y="380" name="center"/>
	<anchor x="356" y="760" name="top"/>
	<anchor x="691" y="760" name="topright"/>
	<outline>
		<contour>
			<point x="130" y="-1" type="line" name="_corner03"/>
			<point x="645" y="-1" type="line" name="_corner00"/>
			<point x="681" y="194" type="line"/>
			<point x="618" y="208" type="line" name="_corner01"/>
			<point x="561" y="98"/>
			<point x="477" y="70"/>
			<point x="395" y="70" type="curve" smooth="yes"/>
			<point x="298" y="70"/>
			<point x="280" y="75"/>
			<point x="280" y="134" type="curve" smooth="yes"/>
			<point x="280" y="760" type="line" name="_corner04"/>
			<point x="130" y="760" type="line" name="_corner02"/>
		</contour>
	</outline>
</glyph>
<glyph name="M" format="2">
	<advance width="1013"/>
	<unicode hex="004D"/>
	<anchor x="507" y="0" name="bottom"/>
	<anchor x="507" y="760" name="top"/>
	<outline>
		<contour>
			<point x="478" y="10" type="line" smooth="yes"/>
			<point x="485" y="-4"/>
			<point x="536" y="-4"/>
			<point x="542" y="10" type="curve" smooth="yes"/>
			<point x="878" y="760" type="line"/>
			<point x="783" y="760" type="line"/>
			<point x="540" y="220" type="line"/>
			<point x="283" y="760" type="line"/>
			<point x="117" y="760" type="line"/>
		</contour>
		<contour>
			<point x="215" y="0" type="line" name="_corner01"/>
			<point x="200" y="760" type="line"/>
			<point x="120" y="760" type="line" name="_corner00"/>
			<point x="120" y="0" type="line" name="_corner03"/>
		</contour>
		<contour>
			<point x="933" y="760" type="line" name="_corner04"/>
			<point x="803" y="760" type="line"/>
			<point x="793" y="0" type="line" name="_corner05"/>
			<point x="933" y="0" type="line" name="_corner02"/>
		</contour>
	</outline>
</glyph>
<glyph name="N" format="2">
	<advance width="808"/>
	<unicode hex="004E"/>
	<anchor x="404" y="0" name="bottom"/>
	<anchor x="404" y="760" name="top"/>
	<outline>
		<contour>
			<point x="609" y="760" type="line" name="_corner01"/>
			<point x="619" y="250" type="line"/>
			<point x="190" y="760" type="line"/>
			<point x="110" y="760" type="line" name="_corner02"/>
			<point x="110" y="0" type="line" name="_corner03"/>
			<point x="210" y="0" type="line" name="_corner04"/>
			<point x="195" y="510" type="line"/>
			<point x="634" y="0" type="line"/>
			<point x="714" y="10" type="line" name="_corner05"/>
			<point x="709" y="160" type="line"/>
			<point x="709" y="760" type="line" name="_corner00"/>
		</contour>
	</outline>
</glyph>
<glyph name="O" format="2">
	<advance width="880"/>
	<unicode hex="004F"/>
	<anchor x="440" y="0" name="bottom"/>
	<anchor x="440" y="380" name="center"/>
	<anchor x="792" y="10" name="ogonek"/>
	<anchor x="440" y="760" name="top"/>
	<anchor x="20" y="760" name="topleft"/>
	<anchor x="860" y="760" name="topright"/>
	<outline>
		<contour>
			<point x="426" y="-10" type="curve" smooth="yes"/>
			<point x="641" y="-10"/>
			<point x="830" y="163"/>
			<point x="830" y="385" type="curve" smooth="yes"/>
			<point x="830" y="613"/>
			<point x="659" y="770"/>
			<point x="454" y="770" type="curve" smooth="yes"/>
			<point x="239" y="770"/>
			<point x="50" y="597"/>
			<point x="50" y="375" type="curve" smooth="yes"/>
			<point x="50" y="147"/>
			<point x="221" y="-10"/>
		</contour>
		<contour>
			<point x="453" y="67" type="curve" smooth="yes"/>
			<point x="291" y="67"/>
			<point x="214" y="253"/>
			<point x="214" y="408" type="curve" smooth="yes"/>
			<point x="214" y="601"/>
			<point x="318" y="693"/>
			<point x="427" y="693" type="curve" smooth="yes"/>
			<point x="589" y="693"/>
			<point x="666" y="507"/>
			<point x="666" y="352" type="curve" smooth="yes"/>
			<point x="666" y="159"/>
			<point x="562" y="67"/>
		</contour>
	</outline>
</glyph>
<glyph name="P" format="2">
	<advance width="670"/>
	<unicode hex="0050"/>
	<anchor x="335" y="0" name="bottom"/>
	<anchor x="335" y="760" name="top"/>
	<outline>
		<contour>
			<point x="109" y="0" type="line" name="_corner00"/>
			<point x="259" y="0" type="line" name="_corner01"/>
			<point x="259" y="290" type="line"/>
			<point x="447" y="267"/>
			<point x="640" y="347"/>
			<point x="640" y="529" type="curve" smooth="yes"/>
			<point x="640" y="650"/>
			<point x="568" y="760"/>
			<point x="366" y="760" type="curve" smooth="yes"/>
			<point x="109" y="760" type="line" name="_corner02"/>
		</contour>
		<contour>
			<point x="259" y="370" type="curve"/>
			<point x="259" y="685" type="line"/>
			<point x="368" y="700"/>
			<point x="485" y="673"/>
			<point x="485" y="520" type="curve" smooth="yes"/>
			<point x="485" y="372"/>
			<point x="359" y="345"/>
		</contour>
	</outline>
</glyph>
<glyph name="Q" format="2">
	<advance width="880"/>
	<unicode hex="0051"/>
	<anchor x="440" y="0" name="bottom"/>
	<anchor x="440" y="760" name="top"/>
	<outline>
		<contour>
			<point x="426" y="-10" type="curve" smooth="yes"/>
			<point x="641" y="-10"/>
			<point x="830" y="163"/>
			<point x="830" y="385" type="curve" smooth="yes"/>
			<point x="830" y="613"/>
			<point x="659" y="770"/>
			<point x="454" y="770" type="curve" smooth="yes"/>
			<point x="239" y="770"/>
			<point x="50" y="597"/>
			<point x="50" y="375" type="curve" smooth="yes"/>
			<point x="50" y="147"/>
			<point x="221" y="-10"/>
		</contour>
		<contour>
			<point x="453" y="77" type="curve" smooth="yes"/>
			<point x="291" y="77"/>
			<point x="214" y="253"/>
			<point x="214" y="408" type="curve" smooth="yes"/>
			<point x="214" y="601"/>
			<point x="318" y="683"/>
			<point x="427" y="683" type="curve" smooth="yes"/>
			<point x="589" y="683"/>
			<point x="666" y="507"/>
			<point x="666" y="352" type="curve" smooth="yes"/>
			<point x="666" y="159"/>
			<point x="562" y="77"/>
		</contour>
		<contour>
			<point x="333" y="77" type="line"/>
			<point x="680" y="-149"/>
			<point x="714" y="-231"/>
			<point x="945" y="-78" type="curve"/>
			<point x="910" y="-19" type="line" name="_corner00"/>
			<point x="789" y="-81"/>
			<point x="748" y="-50"/>
			<point x="470" y="159" type="curve"/>
		</contour>
	</outline>
</glyph>
<glyph name="R" format="2">
	<advance width="712"/>
	<unicode hex="0052"/>
	<anchor x="356" y="0" name="bottom"/>
	<anchor x="356" y="760" name="top"/>
	<outline>
		<contour>
			<point x="109" y="0" type="line" name="_corner03"/>
			<point x="259" y="0" type="line" name="_corner01"/>
			<point x="259" y="325" type="line"/>
			<point x="339" y="330" type="line"/>
			<point x="515" y="0" type="line"/>
			<point x="685" y="0" type="line" name="_corner00"/>
			<point x="480" y="351" type="line"/>
			<point x="722" y="428"/>
			<point x="692" y="760"/>
			<point x="386" y="760" type="curve" smooth="yes"/>
			<point x="109" y="760" type="line" name="_corner02"/>
		</contour>
		<contour>
			<point x="259" y="410" type="curve"/>
			<point x="259" y="685" type="line"/>
			<point x="368" y="700"/>
			<point x="485" y="673"/>
			<point x="485" y="540" type="curve" smooth="yes"/>
			<point x="485" y="412"/>
			<point x="359" y="385"/>
		</contour>
	</outline>
</glyph>
<glyph name="S" format="2">
	<advance width="583"/>
	<unicode hex="0053"/>
	<anchor x="292" y="0" name="bottom"/>
	<anchor x="292" y="760" name="top"/>
	<outline>
		<contour>
			<point x="30" y="225" type="curve" smooth="yes"/>
			<point x="45" y="56" type="line"/>
			<point x="100" y="13"/>
			<point x="174" y="-8"/>
			<point x="248" y="-8" type="curve" smooth="yes"/>
			<point x="395" y="-8"/>
			<point x="543" y="75"/>
			<point x="543" y="225" type="curve" smooth="yes"/>
			<point x="543" y="489"/>
			<point x="161" y="434"/>
			<point x="161" y="588" type="curve" smooth="yes"/>
			<point x="161" y="649"/>
			<point x="213" y="693"/>
			<point x="274" y="693" type="curve" smooth="yes"/>
			<point x="329" y="693"/>
			<point x="392" y="652"/>
			<point x="442" y="568" type="curve" smooth="yes"/>
			<point x="451" y="553"/>
			<point x="499" y="563"/>
			<point x="497" y="581" type="curve" smooth="yes"/>
			<point x="479" y="726" type="line"/>
			<point x="429" y="752"/>
			<point x="357" y="769"/>
			<point x="295" y="769" type="curve" smooth="yes"/>
			<point x="163" y="769"/>
			<point x="33" y="690"/>
			<point x="33" y="541" type="curve" smooth="yes"/>
			<point x="33" y="289"/>
			<point x="395" y="366"/>
			<point x="395" y="186" type="curve" smooth="yes"/>
			<point x="395" y="128"/>
			<point x="341" y="71"/>
			<point x="272" y="71" type="curve" smooth="yes"/>
			<point x="213" y="71"/>
			<point x="142" y="114"/>
			<point x="88" y="237" type="curve" smooth="yes"/>
			<point x="82" y="251"/>
			<point x="29" y="238"/>
		</contour>
	</outline>
</glyph>
<glyph name="T" format="2">
	<advance width="792"/>
	<unicode hex="0054"/>
	<anchor x="396" y="0" name="bottom"/>
	<anchor x="396" y="380" name="center"/>
	<anchor x="396" y="760" name="top"/>
	<outline>
		<contour>
			<point x="46" y="770" type="line" name="_corner05"/>
			<point x="20" y="570" type="line"/>
			<point x="73" y="556" type="line" name="_corner03"/>
			<point x="140" y="666"/>
			<point x="144" y="684"/>
			<point x="226" y="684" type="curve" smooth="yes"/>
			<point x="313" y="684"/>
			<point x="321" y="679"/>
			<point x="321" y="620" type="curve" smooth="yes"/>
			<point x="321" y="0" type="line" name="_corner00"/>
			<point x="471" y="0" type="line" name="_corner01"/>
			<point x="471" y="620" type="line" smooth="yes"/>
			<point x="471" y="679"/>
			<point x="479" y="684"/>
			<point x="566" y="684" type="curve" smooth="yes"/>
			<point x="648" y="684"/>
			<point x="652" y="666"/>
			<point x="719" y="556" type="curve"/>
			<point x="772" y="570" type="line" name="_corner02"/>
			<point x="746" y="770" type="line" name="_corner04"/>
			<point x="596" y="760" type="line"/>
			<point x="196" y="760" type="line"/>
		</contour>
	</outline>
</glyph>
<glyph name="U" format="2">
	<advance width="866"/>
	<unicode hex="0055"/>
	<anchor x="433" y="0" name="bottom"/>
	<anchor x="531" y="3" name="ogonek"/>
	<anchor x="433" y="760" name="top"/>
	<anchor x="846" y="760" name="topright"/>
	<outline>
		<contour>
			<point x="429" y="-10" type="curve" smooth="yes"/>
			<point x="654" y="-10"/>
			<point x="753" y="133"/>
			<point x="753" y="295" type="curve" smooth="yes"/>
			<point x="753" y="760" type="line" name="_corner02"/>
			<point x="663" y="760" type="line" name="_corner03"/>
			<point x="663" y="305" type="line" smooth="yes"/>
			<point x="663" y="160"/>
			<point x="572" y="90"/>
			<point x="463" y="90" type="curve" smooth="yes"/>
			<point x="365" y="90"/>
			<point x="258" y="153"/>
			<point x="258" y="306" type="curve" smooth="yes"/>
			<point x="258" y="760" type="line" name="_corner00"/>
			<point x="103" y="760" type="line" name="_corner01"/>
			<point x="103" y="305" type="line" smooth="yes"/>
			<point x="103" y="87"/>
			<point x="204" y="-10"/>
		</contour>
	</outline>
</glyph>
<glyph name="V" format="2">
	<advance width="771"/>
	<unicode hex="0056"/>
	<anchor x="386" y="0" name="bottom"/>
	<anchor x="386" y="760" name="top"/>
	<outline>
		<contour>
			<point x="351" y="0" type="line"/>
			<point x="431" y="-1" type="line"/>
			<point x="751" y="760" type="line" name="_corner02"/>
			<point x="656" y="760" type="line" name="_corner03"/>
			<point x="431" y="195" type="line"/>
			<point x="191" y="760" type="line" name="_corner00"/>
			<point x="21" y="760" type="line" name="_corner01"/>
		</contour>
	</outline>
</glyph>
<glyph name="W" format="2">
	<advance width="1124"/>
	<unicode hex="0057"/>
	<anchor x="562" y="0" name="bottom"/>
	<anchor x="562" y="760" name="top"/>
	<outline>
		<contour>
			<point x="331" y="0" type="line"/>
			<point x="416" y="-1" type="line"/>
			<point x="631" y="600" type="line"/>
			<point x="536" y="600" type="line"/>
			<point x="411" y="225" type="line"/>
			<point x="221" y="760" type="line" name="_corner00"/>
			<point x="51" y="760" type="line" name="_corner01"/>
		</contour>
		<contour>
			<point x="731" y="0" type="line"/>
			<point x="811" y="-1" type="line"/>
			<point x="1071" y="760" type="line" name="_corner02"/>
			<point x="966" y="760" type="line" name="_corner03"/>
			<point x="801" y="235" type="line"/>
			<point x="631" y="760" type="line" name="_corner04"/>
			<point x="471" y="760" type="line" name="_corner05"/>
		</contour>
	</outline>
</glyph>
<glyph name="X" format="2">
	<advance width="766"/>
	<unicode hex="0058"/>
	<anchor x="383" y="0" name="bottom"/>
	<anchor x="383" y="760" name="top"/>
	<outline>
		<contour>
			<point x="460" y="-1" type="curve" smooth="yes"/>
			<point x="560" y="0"/>
			<point x="675" y="0"/>
			<point x="755" y="-1" type="curve" smooth="yes"/>
			<point x="766" y="-1"/>
			<point x="770" y="46"/>
			<point x="762" y="51" type="curve"/>
			<point x="690" y="79"/>
			<point x="678" y="91"/>
			<point x="623" y="165" type="curve" smooth="yes"/>
			<point x="307" y="587" type="line" smooth="yes"/>
			<point x="239" y="677"/>
			<point x="222" y="688"/>
			<point x="277" y="709" type="curve" smooth="yes"/>
			<point x="287" y="713"/>
			<point x="281" y="761"/>
			<point x="271" y="761" type="curve" smooth="yes"/>
			<point x="191" y="760"/>
			<point x="76" y="760"/>
			<point x="-4" y="761" type="curve" smooth="yes"/>
			<point x="-15" y="761"/>
			<point x="-19" y="714"/>
			<point x="-11" y="709" type="curve"/>
			<point x="61" y="681"/>
			<point x="74" y="667"/>
			<point x="128" y="595" type="curve" smooth="yes"/>
			<point x="444" y="173" type="line" smooth="yes"/>
			<point x="511" y="83"/>
			<point x="529" y="72"/>
			<point x="454" y="50" type="curve" smooth="yes"/>
			<point x="444" y="47"/>
			<point x="450" y="-1"/>
		</contour>
		<contour>
			<point x="-9" y="-1" type="curve" smooth="yes"/>
			<point x="51" y="0"/>
			<point x="146" y="0"/>
			<point x="256" y="-1" type="curve" smooth="yes"/>
			<point x="266" y="-1"/>
			<point x="271" y="46"/>
			<point x="262" y="49" type="curve" smooth="yes"/>
			<point x="185" y="77"/>
			<point x="198" y="85"/>
			<point x="262" y="173" type="curve" smooth="yes"/>
			<point x="405" y="369" type="line"/>
			<point x="333" y="391" type="line"/>
			<point x="133" y="165" type="line" smooth="yes"/>
			<point x="67" y="91"/>
			<point x="46" y="79"/>
			<point x="-16" y="51" type="curve"/>
			<point x="-24" y="46"/>
			<point x="-20" y="-1"/>
		</contour>
		<contour>
			<point x="413" y="369" type="line"/>
			<point x="603" y="595" type="line" smooth="yes"/>
			<point x="667" y="671"/>
			<point x="690" y="681"/>
			<point x="752" y="709" type="curve"/>
			<point x="760" y="714"/>
			<point x="756" y="761"/>
			<point x="745" y="761" type="curve" smooth="yes"/>
			<point x="685" y="760"/>
			<point x="590" y="760"/>
			<point x="480" y="761" type="curve" smooth="yes"/>
			<point x="470" y="761"/>
			<point x="465" y="714"/>
			<point x="474" y="711" type="curve" smooth="yes"/>
			<point x="551" y="683"/>
			<point x="535" y="677"/>
			<point x="474" y="587" type="curve" smooth="yes"/>
			<point x="341" y="391" type="line"/>
		</contour>
	</outline>
</glyph>
<glyph name="Y" format="2">
	<advance width="751"/>
	<unicode hex="0059"/>
	<anchor x="376" y="0" name="bottom"/>
	<anchor x="376" y="760" name="top"/>
	<anchor x="20" y="760" name="topleft"/>
	<outline>
		<contour>
			<point x="-6" y="709" type="curve"/>
			<point x="66" y="681"/>
			<point x="83" y="672"/>
			<point x="133" y="595" type="curve" smooth="yes"/>
			<point x="304" y="331" type="line"/>
			<point x="304" y="0" type="line" name="_corner00"/>
			<point x="444" y="0" type="line" name="_corner01"/>
			<point x="444" y="345" type="line"/>
			<point x="608" y="595" type="line" smooth="yes"/>
			<point x="663" y="679"/>
			<point x="695" y="681"/>
			<point x="757" y="709" type="curve"/>
			<point x="765" y="714"/>
			<point x="761" y="761"/>
			<point x="750" y="761" type="curve" smooth="yes"/>
			<point x="690" y="760"/>
			<point x="595" y="760"/>
			<point x="505" y="761" type="curve" smooth="yes"/>
			<point x="495" y="761"/>
			<point x="490" y="714"/>
			<point x="499" y="710" type="curve" smooth="yes"/>
			<point x="556" y="683"/>
			<point x="557" y="679"/>
			<point x="499" y="587" type="curve" smooth="yes"/>
			<point x="405" y="439" type="line"/>
			<point x="312" y="587" type="line" smooth="yes"/>
			<point x="252" y="682"/>
			<point x="227" y="688"/>
			<point x="282" y="709" type="curve" smooth="yes"/>
			<point x="292" y="713"/>
			<point x="286" y="761"/>
			<point x="276" y="761" type="curve" smooth="yes"/>
			<point x="196" y="760"/>
			<point x="81" y="760"/>
			<point x="1" y="761" type="curve" smooth="yes"/>
			<point x="-10" y="761"/>
			<point x="-14" y="714"/>
		</contour>
	</outline>
</glyph>
<glyph name="Z" format="2">
	<advance width="730"/>
	<unicode hex="005A"/>
	<anchor x="365" y="0" name="bottom"/>
	<anchor x="365" y="380" name="center"/>
	<anchor x="365" y="760" name="top"/>
	<outline>
		<contour>
			<point x="240" y="75" type="line"/>
			<point x="680" y="715" type="line"/>
			<point x="663" y="760" type="line"/>
			<point x="115" y="760" type="line" name="_corner01"/>
			<point x="89" y="571" type="line"/>
			<point x="142" y="557" type="line" name="_corner03"/>
			<point x="199" y="647"/>
			<point x="213" y="671"/>
			<point x="385" y="680" type="curve" smooth="yes"/>
			<point x="485" y="685" type="line"/>
			<point x="50" y="45" type="line"/>
			<point x="67" y="0" type="line"/>
			<point x="645" y="0" type="line" name="_corner00"/>
			<point x="671" y="199" type="line"/>
			<point x="618" y="213" type="line" name="_corner02"/>
			<point x="551" y="113"/>
			<point x="537" y="97"/>
			<point x="375" y="85" type="curve" smooth="yes"/>
		</contour>
	</outline>
</glyph>
<glyph name="asciicircum" format="2">
	<advance width="600"/>
	<unicode hex="005E"/>
	<outline>
		<contour>
			<point x="100" y="670" type="curve" smooth="yes"/>
			<point x="271" y="812" type="line" smooth="yes"/>
			<point x="297" y="834"/>
			<point x="303" y="834"/>
			<point x="329" y="812" type="curve" smooth="yes"/>
			<point x="500" y="670" type="line" smooth="yes"/>
			<point x="514" y="659"/>
			<point x="474" y="602"/>
			<point x="460" y="610" type="curve" smooth="yes"/>
			<point x="300" y="695" type="line"/>
			<point x="140" y="610" type="line" smooth="yes"/>
			<point x="126" y="602"/>
			<point x="86" y="659"/>
		</contour>
	</outline>
</glyph>
<glyph name="a" format="2">
	<advance width="557"/>
	<unicode hex="0061"/>
	<anchor x="279" y="0" name="bottom"/>
	<anchor x="501" y="10" name="ogonek"/>
	<anchor x="279" y="500" name="top"/>
	<outline>
		<contour>
			<point x="80" y="410" type="curve"/>
			<point x="111" y="365" type="line" name="_corner00"/>
			<point x="209" y="435"/>
			<point x="307" y="411"/>
			<point x="313" y="321" type="curve" smooth="yes"/>
			<point x="315" y="287" type="line"/>
			<point x="163" y="258" type="line" smooth="yes"/>
			<point x="5" y="228"/>
			<point x="48" y="-10"/>
			<point x="199" y="-10" type="curve" smooth="yes"/>
			<point x="246" y="-10"/>
			<point x="291" y="18"/>
			<point x="322" y="55" type="curve"/>
			<point x="373" y="-35"/>
			<point x="445" y="-22"/>
			<point x="548" y="45" type="curve"/>
			<point x="523" y="90" type="line" name="_corner01"/>
			<point x="471" y="59"/>
			<point x="440" y="95"/>
			<point x="442" y="140" type="curve" smooth="yes"/>
			<point x="449" y="308" type="line" smooth="yes"/>
			<point x="457" y="499"/>
			<point x="278" y="591"/>
		</contour>
		<contour>
			<point x="225" y="209" type="curve" smooth="yes"/>
			<point x="315" y="234" type="line"/>
			<point x="313" y="103" type="line"/>
			<point x="298" y="89"/>
			<point x="279" y="80"/>
			<point x="254" y="80" type="curve" smooth="yes"/>
			<point x="165" y="80"/>
			<point x="163" y="192"/>
		</contour>
	</outline>
</glyph>
<glyph name="b" format="2">
	<advance width="611"/>
	<unicode hex="0062"/>
	<anchor x="306" y="0" name="bottom"/>
	<anchor x="306" y="250" name="center"/>
	<anchor x="306" y="500" name="top"/>
	<outline>
		<contour>
			<point x="46" y="760" type="curve" name="_corner01"/>
			<point x="71" y="637"/>
			<point x="94" y="570"/>
			<point x="91" y="335" type="curve" smooth="yes"/>
			<point x="87" y="-10" type="line" name="_corner03"/>
			<point x="212" y="20" type="line"/>
			<point x="212" y="530" type="line" smooth="yes"/>
			<point x="212" y="625"/>
			<point x="217" y="720"/>
			<point x="222" y="815" type="curve" name="_corner00"/>
			<point x="176" y="798"/>
			<point x="92" y="772"/>
		</contour>
		<contour>
			<point x="561" y="268" type="curve" smooth="yes"/>
			<point x="561" y="423"/>
			<point x="479" y="508"/>
			<point x="381" y="508" type="curve" smooth="yes"/>
			<point x="297" y="508"/>
			<point x="201" y="445"/>
			<point x="136" y="310" type="curve"/>
			<point x="175" y="310" type="line" name="_corner02"/>
			<point x="231" y="376"/>
			<point x="278" y="402"/>
			<point x="316" y="402" type="curve" smooth="yes"/>
			<point x="384" y="402"/>
			<point x="426" y="340"/>
			<point x="426" y="242" type="curve" smooth="yes"/>
			<point x="426" y="145"/>
			<point x="402" y="68"/>
			<point x="323" y="68" type="curve" smooth="yes"/>
			<point x="264" y="68"/>
			<point x="217" y="116"/>
			<point x="181" y="150" type="curve"/>
			<point x="156" y="25" type="line"/>
			<point x="192" y="6"/>
			<point x="228" y="-8"/>
			<point x="293" y="-8" type="curve" smooth="yes"/>
			<point x="414" y="-8"/>
			<point x="561" y="84"/>
		</contour>
	</outline>
</glyph>
<glyph name="c" format="2">
	<advance width="504"/>
	<unicode hex="0063"/>
	<anchor x="252" y="0" name="bottom"/>
	<anchor x="302" y="500" name="top"/>
	<outline>
		<contour>
			<point x="271" y="-9" type="curve" smooth="yes"/>
			<point x="335" y="-9"/>
			<point x="406" y="16"/>
			<point x="475" y="70" type="curve"/>
			<point x="444" y="130" type="line" name="_corner00"/>
			<point x="293" y="61"/>
			<point x="200" y="96"/>
			<point x="200" y="279" type="curve" smooth="yes"/>
			<point x="200" y="382"/>
			<point x="223" y="415"/>
			<point x="266" y="415" type="curve" smooth="yes"/>
			<point x="309" y="415"/>
			<point x="362" y="372"/>
			<point x="404" y="345" type="curve" smooth="yes"/>
			<point x="441" y="322"/>
			<point x="482" y="448"/>
			<point x="460" y="470" type="curve" smooth="yes"/>
			<point x="434" y="496"/>
			<point x="390" y="509"/>
			<point x="340" y="509" type="curve" smooth="yes"/>
			<point x="216" y="509"/>
			<point x="55" y="424"/>
			<point x="55" y="232" type="curve" smooth="yes"/>
			<point x="55" y="81"/>
			<point x="150" y="-9"/>
		</contour>
	</outline>
</glyph>
<glyph name="d" format="2">
	<advance width="628"/>
	<unicode hex="0064"/>
	<anchor x="314" y="0" name="bottom"/>
	<anchor x="314" y="250" name="center"/>
	<anchor x="314" y="800" name="top"/>
	<anchor x="588" y="800" name="topright"/>
	<outline>
		<contour>
			<point x="51" y="232" type="curve" smooth="yes"/>
			<point x="51" y="77"/>
			<point x="133" y="-8"/>
			<point x="231" y="-8" type="curve" smooth="yes"/>
			<point x="315" y="-8"/>
			<point x="411" y="55"/>
			<point x="476" y="190" type="curve"/>
			<point x="437" y="190" type="line"/>
			<point x="381" y="124"/>
			<point x="334" y="98"/>
			<point x="296" y="98" type="curve" smooth="yes"/>
			<point x="228" y="98"/>
			<point x="186" y="170"/>
			<point x="186" y="278" type="curve" smooth="yes"/>
			<point x="186" y="394"/>
			<point x="229" y="434"/>
			<point x="281" y="434" type="curve" smooth="yes"/>
			<point x="334" y="434"/>
			<point x="395" y="394"/>
			<point x="431" y="350" type="curve"/>
			<point x="456" y="495" type="line"/>
			<point x="420" y="504"/>
			<point x="384" y="508"/>
			<point x="349" y="508" type="curve" smooth="yes"/>
			<point x="168" y="508"/>
			<point x="51" y="416"/>
		</contour>
		<contour>
			<point x="358" y="768" type="curve" name="_corner03"/>
			<point x="383" y="645"/>
			<point x="401" y="578"/>
			<point x="402" y="433" type="curve" smooth="yes"/>
			<point x="404" y="-20" type="line" name="_corner00"/>
			<point x="530" y="30" type="line" name="_corner01"/>
			<point x="530" y="538" type="line" smooth="yes"/>
			<point x="530" y="633"/>
			<point x="535" y="728"/>
			<point x="540" y="823" type="curve" name="_corner02"/>
			<point x="494" y="806"/>
			<point x="404" y="780"/>
		</contour>
	</outline>
</glyph>
<glyph name="e" format="2">
	<advance width="532"/>
	<unicode hex="0065"/>
	<anchor x="266" y="0" name="bottom"/>
	<anchor x="475" y="70" name="ogonek"/>
	<anchor x="266" y="500" name="top"/>
	<outline>
		<contour>
			<point x="50" y="232" type="curve" smooth="yes"/>
			<point x="50" y="77"/>
			<point x="155" y="-10"/>
			<point x="278" y="-10" type="curve" smooth="yes"/>
			<point x="333" y="-10"/>
			<point x="399" y="12"/>
			<point x="475" y="70" type="curve"/>
			<point x="444" y="130" type="line" name="_corner01"/>
			<point x="281" y="42"/>
			<point x="184" y="144"/>
			<point x="184" y="294" type="curve" smooth="yes"/>
			<point x="184" y="489"/>
			<point x="353" y="446"/>
			<point x="340" y="325" type="curve"/>
			<point x="140" y="318" type="line"/>
			<point x="133" y="258" type="line"/>
			<point x="476" y="258" type="line" name="_corner00"/>
			<point x="476" y="455"/>
			<point x="373" y="511"/>
			<point x="289" y="511" type="curve" smooth="yes"/>
			<point x="182" y="511"/>
			<point x="50" y="403"/>
		</contour>
	</outline>
</glyph>
<glyph name="g" format="2">
	<advance width="550"/>
	<unicode hex="0067"/>
	<anchor x="275" y="-250" name="bottom"/>
	<anchor x="275" y="500" name="top"/>
	<outline>
		<contour>
			<point x="371" y="480" type="line"/>
			<point x="381" y="450" type="line"/>
			<point x="520" y="397" type="line" smooth="yes"/>
			<point x="551" y="385"/>
			<point x="565" y="519"/>
			<point x="511" y="508" type="curve" smooth="yes"/>
		</contour>
		<contour>
			<point x="19" y="140"/>
			<point x="35" y="36"/>
			<point x="128" y="-1" type="curve"/>
			<point x="-22" y="-87"/>
			<point x="0" y="-261"/>
			<point x="238" y="-261" type="curve" smooth="yes"/>
			<point x="392" y="-261"/>
			<point x="523" y="-157"/>
			<point x="523" y="-53" type="curve" smooth="yes"/>
			<point x="523" y="40"/>
			<point x="458" y="105"/>
			<point x="364" y="102" type="curve" smooth="yes"/>
			<point x="229" y="97" type="line" smooth="yes"/>
			<point x="155" y="94"/>
			<point x="120" y="141"/>
			<point x="142" y="193" type="curve"/>
			<point x="112" y="212" type="line"/>
		</contour>
		<contour>
			<point x="173" y="-65" type="curve" smooth="yes"/>
			<point x="173" y="-44"/>
			<point x="178" y="-25"/>
			<point x="186" y="-13" type="curve"/>
			<point x="304" y="-13" type="line" smooth="yes"/>
			<point x="434" y="-13"/>
			<point x="446" y="-180"/>
			<point x="288" y="-180" type="curve" smooth="yes"/>
			<point x="204" y="-180"/>
			<point x="173" y="-117"/>
		</contour>
		<contour>
			<point x="249" y="150" type="curve" smooth="yes"/>
			<point x="391" y="150"/>
			<point x="463" y="247"/>
			<point x="463" y="340" type="curve" smooth="yes"/>
			<point x="463" y="427"/>
			<point x="401" y="510"/>
			<point x="275" y="510" type="curve" smooth="yes"/>
			<point x="133" y="510"/>
			<point x="58" y="411"/>
			<point x="58" y="317" type="curve" smooth="yes"/>
			<point x="58" y="232"/>
			<point x="119" y="150"/>
		</contour>
		<contour>
			<point x="271" y="220" type="curve" smooth="yes"/>
			<point x="224" y="215"/>
			<point x="200" y="255"/>
			<point x="194" y="310" type="curve" smooth="yes"/>
			<point x="184" y="405"/>
			<point x="207" y="436"/>
			<point x="253" y="440" type="curve" smooth="yes"/>
			<point x="300" y="445"/>
			<point x="324" y="405"/>
			<point x="330" y="350" type="curve" smooth="yes"/>
			<point x="340" y="255"/>
			<point x="317" y="224"/>
		</contour>
	</outline>
</glyph>
<glyph name="h" format="2">
	<advance width="628"/>
	<unicode hex="0068"/>
	<anchor x="314" y="0" name="bottom"/>
	<anchor x="314" y="400" name="center"/>
	<anchor x="314" y="800" name="top"/>
	<outline>
		<contour>
			<point x="428" y="0" type="line" name="_corner01"/>
			<point x="543" y="0" type="line" name="_corner00"/>
			<point x="553" y="320" type="line" smooth="yes"/>
			<point x="557" y="435"/>
			<point x="492" y="510"/>
			<point x="403" y="510" type="curve" smooth="yes"/>
			<point x="332" y="510"/>
			<point x="248" y="461"/>
			<point x="178" y="341" type="curve"/>
			<point x="202" y="320" type="line"/>
			<point x="275" y="439"/>
			<point x="428" y="417"/>
			<point x="428" y="270" type="curve" smooth="yes"/>
		</contour>
		<contour>
			<point x="62" y="760" type="curve" name="_corner05"/>
			<point x="87" y="637"/>
			<point x="108" y="570"/>
			<point x="108" y="395" type="curve" smooth="yes"/>
			<point x="108" y="0" type="line" name="_corner02"/>
			<point x="228" y="0" type="line" name="_corner03"/>
			<point x="228" y="530" type="line" smooth="yes"/>
			<point x="228" y="625"/>
			<point x="233" y="720"/>
			<point x="238" y="815" type="curve" name="_corner04"/>
			<point x="192" y="798"/>
			<point x="108" y="772"/>
		</contour>
	</outline>
</glyph>
<glyph name="i" format="2">
	<advance width="351"/>
	<unicode hex="0069"/>
	<anchor x="176" y="0" name="bottom"/>
	<outline>
		<contour>
			<point x="171" y="615" type="curve"/>
			<point x="215" y="635"/>
			<point x="243" y="682"/>
			<point x="243" y="713" type="curve"/>
			<point x="223" y="758"/>
			<point x="175" y="785"/>
			<point x="145" y="785" type="curve"/>
			<point x="101" y="765"/>
			<point x="73" y="718"/>
			<point x="73" y="687" type="curve"/>
			<point x="93" y="642"/>
			<point x="141" y="615"/>
		</contour>
		<contour>
			<point x="108" y="0" type="line" name="_corner03"/>
			<point x="233" y="0" type="line" name="_corner00"/>
			<point x="233" y="515" type="line" name="_corner01"/>
			<point x="203" y="503"/>
			<point x="139" y="482"/>
			<point x="108" y="470" type="curve" name="_corner02"/>
		</contour>
	</outline>
</glyph>
<glyph name="j" format="2">
	<advance width="328"/>
	<unicode hex="006A"/>
	<outline>
		<contour>
			<point x="2" y="-202" type="curve"/>
			<point x="43" y="-260" type="line" name="_corner02"/>
			<point x="168" y="-193"/>
			<point x="234" y="-138"/>
			<point x="234" y="-27" type="curve" smooth="yes"/>
			<point x="234" y="515" type="line" name="_corner00"/>
			<point x="204" y="503"/>
			<point x="145" y="486"/>
			<point x="104" y="470" type="curve" name="_corner01"/>
			<point x="104" y="-9" type="line" smooth="yes"/>
			<point x="104" y="-104"/>
			<point x="89" y="-147"/>
		</contour>
		<contour>
			<point x="171" y="615" type="curve"/>
			<point x="215" y="635"/>
			<point x="243" y="682"/>
			<point x="243" y="713" type="curve"/>
			<point x="223" y="758"/>
			<point x="175" y="785"/>
			<point x="145" y="785" type="curve"/>
			<point x="101" y="765"/>
			<point x="73" y="718"/>
			<point x="73" y="687" type="curve"/>
			<point x="93" y="642"/>
			<point x="141" y="615"/>
		</contour>
	</outline>
</glyph>
<glyph name="k" format="2">
	<advance width="568"/>
	<unicode hex="006B"/>
	<anchor x="284" y="0" name="bottom"/>
	<anchor x="284" y="800" name="top"/>
	<outline>
		<contour>
			<point x="372" y="0" type="line"/>
			<point x="552" y="0" type="line" name="_corner00"/>
			<point x="348" y="290" type="line"/>
			<point x="562" y="490" type="line" name="_corner01"/>
			<point x="397" y="490" type="line" name="_corner02"/>
			<point x="265" y="314" type="line" smooth="yes"/>
			<point x="251" y="296"/>
			<point x="245" y="295"/>
			<point x="221" y="295" type="curve"/>
			<point x="210" y="229" type="line"/>
			<point x="235" y="228"/>
			<point x="254" y="236"/>
			<point x="269" y="206" type="curve" smooth="yes"/>
		</contour>
		<contour>
			<point x="108" y="0" type="line" name="_corner06"/>
			<point x="228" y="0" type="line" name="_corner03"/>
			<point x="228" y="530" type="line" smooth="yes"/>
			<point x="228" y="625"/>
			<point x="233" y="720"/>
			<point x="238" y="815" type="curve" name="_corner04"/>
			<point x="192" y="798"/>
			<point x="108" y="772"/>
			<point x="62" y="760" type="curve" name="_corner05"/>
			<point x="87" y="637"/>
			<point x="108" y="570"/>
			<point x="108" y="395" type="curve" smooth="yes"/>
		</contour>
	</outline>
</glyph>
<glyph name="l" format="2">
	<advance width="346"/>
	<unicode hex="006C"/>
	<anchor x="173" y="0" name="bottom"/>
	<anchor x="173" y="400" name="center"/>
	<anchor x="173" y="800" name="top"/>
	<anchor x="326" y="800" name="topright"/>
	<outline>
		<contour>
			<point x="62" y="760" type="curve" name="_corner03"/>
			<point x="87" y="637"/>
			<point x="108" y="570"/>
			<point x="108" y="395" type="curve" smooth="yes"/>
			<point x="108" y="0" type="line" name="_corner02"/>
			<point x="228" y="0" type="line" name="_corner00"/>
			<point x="228" y="530" type="line" smooth="yes"/>
			<point x="228" y="625"/>
			<point x="233" y="720"/>
			<point x="238" y="815" type="curve" name="_corner01"/>
			<point x="192" y="798"/>
			<point x="108" y="772"/>
		</contour>
	</outline>
</glyph>
<glyph name="m" format="2">
	<advance width="973"/>
	<unicode hex="006D"/>
	<anchor x="487" y="0" name="bottom"/>
	<anchor x="487" y="500" name="top"/>
	<outline>
		<contour>
			<point x="108" y="0" type="line" name="_corner07"/>
			<point x="233" y="0" type="line" name="_corner04"/>
			<point x="233" y="515" type="line" name="_corner05"/>
			<point x="203" y="503"/>
			<point x="139" y="482"/>
			<point x="108" y="470" type="curve" name="_corner06"/>
		</contour>
		<contour>
			<point x="433" y="0" type="line" name="_corner01"/>
			<point x="558" y="0" type="line" name="_corner00"/>
			<point x="558" y="320" type="line" smooth="yes"/>
			<point x="558" y="435"/>
			<point x="497" y="510"/>
			<point x="408" y="510" type="curve" smooth="yes"/>
			<point x="337" y="510"/>
			<point x="253" y="461"/>
			<point x="183" y="341" type="curve"/>
			<point x="207" y="320" type="line"/>
			<point x="281" y="440"/>
			<point x="433" y="416"/>
			<point x="433" y="270" type="curve" smooth="yes"/>
		</contour>
		<contour>
			<point x="753" y="0" type="line" name="_corner03"/>
			<point x="868" y="0" type="line" name="_corner02"/>
			<point x="878" y="320" type="line" smooth="yes"/>
			<point x="882" y="442"/>
			<point x="808" y="508"/>
			<point x="718" y="508" type="curve" smooth="yes"/>
			<point x="642" y="508"/>
			<point x="555" y="461"/>
			<point x="493" y="361" type="curve"/>
			<point x="527" y="310" type="line"/>
			<point x="600" y="439"/>
			<point x="753" y="418"/>
			<point x="753" y="270" type="curve" smooth="yes"/>
		</contour>
	</outline>
</glyph>
<glyph name="n" format="2">
	<advance width="667"/>
	<unicode hex="006E"/>
	<anchor x="334" y="0" name="bottom"/>
	<anchor x="334" y="500" name="top"/>
	<outline>
		<contour>
			<point x="438" y="0" type="line" name="_corner01"/>
			<point x="553" y="0" type="line" name="_corner00"/>
			<point x="563" y="320" type="line" smooth="yes"/>
			<point x="567" y="435"/>
			<point x="502" y="510"/>
			<point x="413" y="510" type="curve" smooth="yes"/>
			<point x="342" y="510"/>
			<point x="258" y="461"/>
			<point x="188" y="341" type="curve"/>
			<point x="212" y="320" type="line"/>
			<point x="285" y="439"/>
			<point x="438" y="417"/>
			<point x="438" y="270" type="curve" smooth="yes"/>
		</contour>
		<contour>
			<point x="113" y="0" type="line" name="_corner05"/>
			<point x="238" y="0" type="line" name="_corner02"/>
			<point x="238" y="515" type="line" name="_corner03"/>
			<point x="208" y="503"/>
			<point x="144" y="482"/>
			<point x="113" y="470" type="curve" name="_corner04"/>
		</contour>
	</outline>
</glyph>
<glyph name="o" format="2">
	<advance width="594"/>
	<unicode hex="006F"/>
	<anchor x="297" y="0" name="bottom"/>
	<anchor x="297" y="250" name="center"/>
	<anchor x="535" y="10" name="ogonek"/>
	<anchor x="297" y="500" name="top"/>
	<anchor x="574" y="500" name="topright"/>
	<outline>
		<contour>
			<point x="279" y="-10" type="curve" smooth="yes"/>
			<point x="456" y="-10"/>
			<point x="544" y="128"/>
			<point x="544" y="262" type="curve" smooth="yes"/>
			<point x="544" y="388"/>
			<point x="467" y="510"/>
			<point x="315" y="510" type="curve" smooth="yes"/>
			<point x="138" y="510"/>
			<point x="50" y="372"/>
			<point x="50" y="238" type="curve" smooth="yes"/>
			<point x="50" y="112"/>
			<point x="127" y="-10"/>
		</contour>
		<contour>
			<point x="317" y="65" type="curve" smooth="yes"/>
			<point x="237" y="58"/>
			<point x="191" y="159"/>
			<point x="191" y="281" type="curve" smooth="yes"/>
			<point x="191" y="382"/>
			<point x="220" y="430"/>
			<point x="277" y="435" type="curve" smooth="yes"/>
			<point x="358" y="442"/>
			<point x="403" y="341"/>
			<point x="403" y="219" type="curve" smooth="yes"/>
			<point x="403" y="118"/>
			<point x="374" y="70"/>
		</contour>
	</outline>
</glyph>
<glyph name="p" format="2">
	<advance width="630"/>
	<unicode hex="0070"/>
	<anchor x="315" y="0" name="bottom"/>
	<anchor x="315" y="500" name="top"/>
	<outline>
		<contour>
			<point x="577" y="268" type="curve" smooth="yes"/>
			<point x="577" y="423"/>
			<point x="495" y="508"/>
			<point x="397" y="508" type="curve" smooth="yes"/>
			<point x="313" y="508"/>
			<point x="217" y="445"/>
			<point x="152" y="310" type="curve"/>
			<point x="191" y="310" type="line"/>
			<point x="247" y="376"/>
			<point x="294" y="402"/>
			<point x="332" y="402" type="curve" smooth="yes"/>
			<point x="400" y="402"/>
			<point x="442" y="340"/>
			<point x="442" y="242" type="curve" smooth="yes"/>
			<point x="442" y="145"/>
			<point x="418" y="68"/>
			<point x="339" y="68" type="curve" smooth="yes"/>
			<point x="280" y="68"/>
			<point x="233" y="116"/>
			<point x="197" y="150" type="curve"/>
			<point x="172" y="5" type="line"/>
			<point x="208" y="-4"/>
			<point x="244" y="-8"/>
			<point x="279" y="-8" type="curve" smooth="yes"/>
			<point x="440" y="-8"/>
			<point x="577" y="84"/>
		</contour>
		<contour>
			<point x="103" y="-250" type="line" name="_corner00"/>
			<point x="228" y="-250" type="line" name="_corner01"/>
			<point x="228" y="515" type="line" name="_corner03"/>
			<point x="198" y="503"/>
			<point x="134" y="482"/>
			<point x="103" y="470" type="curve" name="_corner02"/>
		</contour>
	</outline>
</glyph>
<glyph name="r" format="2">
	<advance width="433"/>
	<unicode hex="0072"/>
	<anchor x="217" y="0" name="bottom"/>
	<anchor x="217" y="500" name="top"/>
	<outline>
		<contour>
			<point x="108" y="0" type="line" name="_corner03"/>
			<point x="233" y="0" type="line" name="_corner00"/>
			<point x="233" y="244" type="line" smooth="yes"/>
			<point x="233" y="337"/>
			<point x="261" y="364"/>
			<point x="366" y="332" type="curve" smooth="yes"/>
			<point x="382" y="327"/>
			<point x="437" y="478"/>
			<point x="372" y="500" type="curve" smooth="yes"/>
			<point x="317" y="519"/>
			<point x="301" y="491"/>
			<point x="233" y="386" type="curve"/>
			<point x="233" y="515" type="line" name="_corner01"/>
			<point x="203" y="503"/>
			<point x="139" y="482"/>
			<point x="108" y="470" type="curve" name="_corner02"/>
		</contour>
	</outline>
</glyph>
<glyph name="s" format="2">
	<advance width="442"/>
	<unicode hex="0073"/>
	<anchor x="221" y="0" name="bottom"/>
	<anchor x="221" y="500" name="top"/>
	<outline>
		<contour>
			<point x="42" y="135" type="curve" smooth="yes"/>
			<point x="59" y="25" type="line"/>
			<point x="235" y="-62"/>
			<point x="402" y="32"/>
			<point x="402" y="137" type="curve" smooth="yes"/>
			<point x="402" y="245"/>
			<point x="327" y="279"/>
			<point x="263" y="309" type="curve" smooth="yes"/>
			<point x="217" y="330"/>
			<point x="176" y="349"/>
			<point x="176" y="392" type="curve" smooth="yes"/>
			<point x="176" y="419"/>
			<point x="195" y="439"/>
			<point x="222" y="439" type="curve" smooth="yes"/>
			<point x="261" y="439"/>
			<point x="294" y="417"/>
			<point x="328" y="359" type="curve" smooth="yes"/>
			<point x="338" y="342"/>
			<point x="387" y="356"/>
			<point x="384" y="377" type="curve" smooth="yes"/>
			<point x="367" y="490" type="line"/>
			<point x="332" y="502"/>
			<point x="294" y="509"/>
			<point x="256" y="509" type="curve" smooth="yes"/>
			<point x="155" y="509"/>
			<point x="51" y="461"/>
			<point x="51" y="348" type="curve" smooth="yes"/>
			<point x="51" y="266"/>
			<point x="116" y="228"/>
			<point x="175" y="202" type="curve" smooth="yes"/>
			<point x="227" y="179"/>
			<point x="273" y="159"/>
			<point x="267" y="115" type="curve" smooth="yes"/>
			<point x="259" y="55"/>
			<point x="159" y="24"/>
			<point x="100" y="154" type="curve" smooth="yes"/>
			<point x="93" y="168"/>
			<point x="38" y="159"/>
		</contour>
	</outline>
</glyph>
<glyph name="t" format="2">
	<advance width="400"/>
	<unicode hex="0074"/>
	<anchor x="200" y="0" name="bottom"/>
	<anchor x="200" y="250" name="center"/>
	<anchor x="200" y="500" name="top"/>
	<anchor x="260" y="800" name="topright"/>
	<outline>
		<contour>
			<point x="86" y="126" type="curve" smooth="yes"/>
			<point x="90" y="-14"/>
			<point x="239" y="-43"/>
			<point x="371" y="39" type="curve"/>
			<point x="347" y="109" type="line" name="_corner00"/>
			<point x="265" y="67"/>
			<point x="221" y="110"/>
			<point x="221" y="183" type="curve" smooth="yes"/>
			<point x="221" y="253"/>
			<point x="221" y="310"/>
			<point x="226" y="400" type="curve"/>
			<point x="346" y="400" type="line"/>
			<point x="356" y="500" type="line" name="_corner01"/>
			<point x="221" y="480" type="line"/>
			<point x="226" y="611" type="line" smooth="yes"/>
			<point x="227" y="626"/>
			<point x="152" y="616"/>
			<point x="148" y="601" type="curve" smooth="yes"/>
			<point x="124" y="500"/>
			<point x="82" y="486"/>
			<point x="31" y="471" type="curve" smooth="yes"/>
			<point x="20" y="468"/>
			<point x="26" y="400"/>
			<point x="36" y="400" type="curve"/>
			<point x="94" y="400" type="line"/>
			<point x="89" y="301"/>
			<point x="82" y="249"/>
		</contour>
	</outline>
</glyph>
<glyph name="u" format="2">
	<advance width="658"/>
	<unicode hex="0075"/>
	<anchor x="329" y="0" name="bottom"/>
	<anchor x="592" y="10" name="ogonek"/>
	<anchor x="329" y="500" name="top"/>
	<anchor x="638" y="500" name="topright"/>
	<outline>
		<contour>
			<point x="255" y="-11" type="curve" smooth="yes"/>
			<point x="326" y="-11"/>
			<point x="410" y="38"/>
			<point x="460" y="108" type="curve"/>
			<point x="436" y="139" type="line"/>
			<point x="363" y="70"/>
			<point x="230" y="62"/>
			<point x="230" y="189" type="curve" smooth="yes"/>
			<point x="230" y="504" type="line" name="_corner04"/>
			<point x="115" y="489" type="line" name="_corner02"/>
			<point x="105" y="159" type="line" smooth="yes"/>
			<point x="102" y="44"/>
			<point x="166" y="-11"/>
		</contour>
		<contour>
			<point x="420" y="-16" type="line" name="_corner01"/>
			<point x="545" y="29" type="line" name="_corner03"/>
			<point x="545" y="489" type="line"/>
			<point x="525" y="506" type="line"/>
			<point x="420" y="490" type="line" name="_corner00"/>
		</contour>
	</outline>
</glyph>
<glyph name="v" format="2">
	<advance width="561"/>
	<unicode hex="0076"/>
	<anchor x="281" y="0" name="bottom"/>
	<anchor x="281" y="500" name="top"/>
	<outline>
		<contour>
			<point x="335" y="-10" type="line"/>
			<point x="371" y="133" type="line"/>
			<point x="530" y="490" type="line" name="_corner03"/>
			<point x="415" y="490" type="line" name="_corner00"/>
			<point x="322" y="157" type="line"/>
			<point x="187" y="490" type="line" name="_corner01"/>
			<point x="37" y="490" type="line" name="_corner02"/>
			<point x="245" y="-20" type="line" name="_corner04"/>
		</contour>
	</outline>
</glyph>
<glyph name="w" format="2">
	<advance width="859"/>
	<unicode hex="0077"/>
	<anchor x="430" y="0" name="bottom"/>
	<anchor x="430" y="500" name="top"/>
	<outline>
		<contour>
			<point x="337" y="-10" type="line"/>
			<point x="373" y="133" type="line"/>
			<point x="537" y="490" type="line"/>
			<point x="422" y="490" type="line" name="_corner01"/>
			<point x="324" y="157" type="line"/>
			<point x="189" y="490" type="line" name="_corner04"/>
			<point x="39" y="490" type="line" name="_corner00"/>
			<point x="247" y="-20" type="line" name="_corner06"/>
		</contour>
		<contour>
			<point x="637" y="-10" type="line"/>
			<point x="673" y="133" type="line"/>
			<point x="832" y="490" type="line" name="_corner05"/>
			<point x="717" y="490" type="line" name="_corner02"/>
			<point x="624" y="157" type="line"/>
			<point x="494" y="490" type="line" name="_corner03"/>
			<point x="444" y="490" type="line"/>
			<point x="393" y="374" type="line"/>
			<point x="547" y="-20" type="line" name="_corner07"/>
		</contour>
	</outline>
</glyph>
<glyph name="x" format="2">
	<advance width="545"/>
	<unicode hex="0078"/>
	<guideline x="435" y="245" angle="0"/>
	<anchor x="273" y="0" name="bottom"/>
	<anchor x="273" y="500" name="top"/>
	<outline>
		<contour>
			<point x="538" y="490" type="line" name="_corner03"/>
			<point x="423" y="490" type="line" name="_corner04"/>
			<point x="299" y="308" type="line"/>
			<point x="188" y="490" type="line" name="_corner06"/>
			<point x="35" y="490" type="line" name="_corner00"/>
			<point x="213" y="234" type="line"/>
			<point x="5" y="0" type="line" name="_corner01"/>
			<point x="120" y="0" type="line" name="_corner02"/>
			<point x="252" y="181" type="line"/>
			<point x="353" y="0" type="line" name="_corner07"/>
			<point x="506" y="0" type="line" name="_corner05"/>
			<point x="337" y="255" type="line"/>
		</contour>
	</outline>
</glyph>
<glyph name="y" format="2">
	<advance width="546"/>
	<unicode hex="0079"/>
	<anchor x="273" y="0" name="bottom"/>
	<anchor x="273" y="500" name="top"/>
	<outline>
		<contour>
			<point x="289" y="-78" type="line"/>
			<point x="369" y="56" type="line"/>
			<point x="355" y="98" type="line"/>
			<point x="530" y="490" type="line" name="_corner00"/>
			<point x="405" y="490" type="line" name="_corner01"/>
			<point x="322" y="157" type="line"/>
			<point x="187" y="490" type="line" name="_corner02"/>
			<point x="37" y="490" type="line" name="_corner03"/>
		</contour>
		<contour>
			<point x="253" y="-260" type="curve" smooth="yes"/>
			<point x="342" y="70" type="line"/>
			<point x="251" y="21" type="line"/>
			<point x="128" y="-233" type="line" smooth="yes"/>
			<point x="114" y="-262"/>
			<point x="246" y="-285"/>
		</contour>
	</outline>
</glyph>
<glyph name="z" format="2">
	<advance width="525"/>
	<unicode hex="007A"/>
	<anchor x="263" y="0" name="bottom"/>
	<anchor x="263" y="250" name="center"/>
	<anchor x="293" y="500" name="top"/>
	<outline>
		<contour>
			<point x="85" y="490" type="line"/>
			<point x="75" y="395" type="line" name="_corner01"/>
			<point x="325" y="420" type="line"/>
			<point x="55" y="50" type="line"/>
			<point x="75" y="0" type="line"/>
			<point x="485" y="0" type="line"/>
			<point x="495" y="95" type="line" name="_corner00"/>
			<point x="230" y="70" type="line"/>
			<point x="505" y="440" type="line"/>
			<point x="485" y="490" type="line"/>
		</contour>
	</outline>
</glyph>
<glyph name="braceleft" format="2">
	<advance width="368"/>
	<unicode hex="007B"/>
	<outline>
		<contour>
			<point x="34" y="345" type="curve"/>
			<point x="134" y="348"/>
			<point x="144" y="412"/>
			<point x="144" y="445" type="curve" smooth="yes"/>
			<point x="144" y="645" type="line"/>
			<point x="144" y="748"/>
			<point x="231" y="795"/>
			<point x="383" y="812" type="curve"/>
			<point x="393" y="814"/>
			<point x="401" y="753"/>
			<point x="391" y="750" type="curve"/>
			<point x="318" y="736"/>
			<point x="274" y="726"/>
			<point x="274" y="650" type="curve"/>
			<point x="274" y="445" type="line" smooth="yes"/>
			<point x="274" y="382"/>
			<point x="244" y="328"/>
			<point x="164" y="315" type="curve" name="_corner00"/>
			<point x="244" y="302"/>
			<point x="274" y="248"/>
			<point x="274" y="185" type="curve" smooth="yes"/>
			<point x="274" y="-20" type="line"/>
			<point x="274" y="-96"/>
			<point x="318" y="-106"/>
			<point x="391" y="-120" type="curve"/>
			<point x="401" y="-123"/>
			<point x="383" y="-184"/>
			<point x="373" y="-182" type="curve"/>
			<point x="221" y="-165"/>
			<point x="144" y="-118"/>
			<point x="144" y="-15" type="curve"/>
			<point x="144" y="185" type="line" smooth="yes"/>
			<point x="144" y="218"/>
			<point x="134" y="282"/>
			<point x="34" y="285" type="curve"/>
			<point x="24" y="285"/>
			<point x="24" y="345"/>
		</contour>
	</outline>
</glyph>
<glyph name="asciitilde" format="2">
	<advance width="600"/>
	<unicode hex="007E"/>
	<outline>
		<contour>
			<point x="300" y="327" type="curve" smooth="yes"/>
			<point x="211" y="355"/>
			<point x="90" y="367"/>
			<point x="6" y="225" type="curve" smooth="yes"/>
			<point x="0" y="216"/>
			<point x="69" y="156"/>
			<point x="76" y="165" type="curve" smooth="yes"/>
			<point x="144" y="251"/>
			<point x="216" y="193"/>
			<point x="300" y="170" type="curve" smooth="yes"/>
			<point x="389" y="142"/>
			<point x="510" y="130"/>
			<point x="594" y="272" type="curve" smooth="yes"/>
			<point x="600" y="281"/>
			<point x="531" y="341"/>
			<point x="524" y="332" type="curve" smooth="yes"/>
			<point x="456" y="246"/>
			<point x="384" y="304"/>
		</contour>
	</outline>
</glyph>
<glyph name="cent" format="2">
	<advance width="600"/>
	<unicode hex="00A2"/>
	<outline>
		<contour>
			<point x="291" y="-9" type="curve" smooth="yes"/>
			<point x="355" y="-9"/>
			<point x="426" y="16"/>
			<point x="495" y="70" type="curve"/>
			<point x="464" y="130" type="line" name="_corner00"/>
			<point x="313" y="61"/>
			<point x="190" y="96"/>
			<point x="190" y="279" type="curve" smooth="yes"/>
			<point x="190" y="382"/>
			<point x="243" y="415"/>
			<point x="286" y="415" type="curve" smooth="yes"/>
			<point x="329" y="415"/>
			<point x="382" y="372"/>
			<point x="424" y="345" type="curve" smooth="yes"/>
			<point x="461" y="322"/>
			<point x="502" y="448"/>
			<point x="480" y="470" type="curve" smooth="yes"/>
			<point x="454" y="496"/>
			<point x="410" y="509"/>
			<point x="360" y="509" type="curve" smooth="yes"/>
			<point x="236" y="509"/>
			<point x="55" y="424"/>
			<point x="55" y="232" type="curve" smooth="yes"/>
			<point x="55" y="81"/>
			<point x="170" y="-9"/>
		</contour>
		<contour>
			<point x="340" y="640" type="line"/>
			<point x="270" y="640" type="line" name="_corner01"/>
			<point x="270" y="-150" type="line"/>
			<point x="340" y="-150" type="line" name="_corner02"/>
		</contour>
	</outline>
</glyph>
<glyph name="sterling" format="2">
	<advance width="637"/>
	<unicode hex="00A3"/>
	<outline>
		<contour>
			<point x="31" y="400" type="line" name="_corner00"/>
			<point x="431" y="400" type="line"/>
			<point x="431" y="470" type="line" name="_corner01"/>
			<point x="251" y="470" type="line"/>
			<point x="227" y="656"/>
			<point x="302" y="712"/>
			<point x="477" y="593" type="curve" smooth="yes"/>
			<point x="504" y="574"/>
			<point x="557" y="714"/>
			<point x="535" y="733" type="curve" smooth="yes"/>
			<point x="448" y="807"/>
			<point x="127" y="786"/>
			<point x="105" y="470" type="curve"/>
			<point x="31" y="470" type="line"/>
		</contour>
		<contour>
			<point x="431" y="330" type="line" name="_corner02"/>
			<point x="31" y="330" type="line"/>
			<point x="31" y="260" type="line" name="_corner03"/>
			<point x="125" y="260" type="line"/>
			<point x="125" y="197"/>
			<point x="108" y="126"/>
			<point x="40" y="30" type="curve"/>
			<point x="37" y="15"/>
			<point x="84" y="-18"/>
			<point x="90" y="-11" type="curve" smooth="yes"/>
			<point x="218" y="150"/>
			<point x="419" y="-186"/>
			<point x="596" y="138" type="curve" smooth="yes"/>
			<point x="603" y="150"/>
			<point x="541" y="191"/>
			<point x="534" y="182" type="curve" smooth="yes"/>
			<point x="444" y="68"/>
			<point x="338" y="190"/>
			<point x="215" y="176" type="curve"/>
			<point x="236" y="206"/>
			<point x="249" y="233"/>
			<point x="257" y="260" type="curve"/>
			<point x="431" y="260" type="line"/>
		</contour>
	</outline>
</glyph>
<glyph name="yen" format="2">
	<advance width="751"/>
	<unicode hex="00A5"/>
	<outline>
		<contour>
			<point x="161" y="310" type="line" name="_corner03"/>
			<point x="581" y="310" type="line"/>
			<point x="581" y="380" type="line" name="_corner02"/>
			<point x="467" y="380" type="line"/>
			<point x="608" y="595" type="line" smooth="yes"/>
			<point x="663" y="679"/>
			<point x="695" y="681"/>
			<point x="757" y="709" type="curve"/>
			<point x="765" y="714"/>
			<point x="761" y="761"/>
			<point x="750" y="761" type="curve" smooth="yes"/>
			<point x="690" y="760"/>
			<point x="595" y="760"/>
			<point x="505" y="761" type="curve" smooth="yes"/>
			<point x="495" y="761"/>
			<point x="490" y="714"/>
			<point x="499" y="710" type="curve" smooth="yes"/>
			<point x="556" y="683"/>
			<point x="557" y="679"/>
			<point x="499" y="587" type="curve" smooth="yes"/>
			<point x="405" y="439" type="line"/>
			<point x="312" y="587" type="line" smooth="yes"/>
			<point x="252" y="682"/>
			<point x="227" y="688"/>
			<point x="282" y="709" type="curve" smooth="yes"/>
			<point x="292" y="713"/>
			<point x="286" y="761"/>
			<point x="276" y="761" type="curve" smooth="yes"/>
			<point x="196" y="760"/>
			<point x="81" y="760"/>
			<point x="1" y="761" type="curve" smooth="yes"/>
			<point x="-10" y="761"/>
			<point x="-14" y="714"/>
			<point x="-6" y="709" type="curve"/>
			<point x="66" y="681"/>
			<point x="83" y="672"/>
			<point x="133" y="595" type="curve" smooth="yes"/>
			<point x="272" y="380" type="line"/>
			<point x="161" y="380" type="line"/>
		</contour>
		<contour>
			<point x="581" y="240" type="line" name="_corner01"/>
			<point x="161" y="240" type="line"/>
			<point x="161" y="170" type="line" name="_corner00"/>
			<point x="304" y="170" type="line"/>
			<point x="304" y="0" type="line" name="_corner04"/>
			<point x="444" y="0" type="line" name="_corner05"/>
			<point x="444" y="170" type="line"/>
			<point x="581" y="170" type="line"/>
		</contour>
	</outline>
</glyph>
<glyph name="section" format="2">
	<advance width="600"/>
	<unicode hex="00A7"/>
	<outline>
		<contour>
			<point x="357" y="219" type="line"/>
			<point x="472" y="219"/>
			<point x="560" y="289"/>
			<point x="560" y="375" type="curve" smooth="yes"/>
			<point x="560" y="468"/>
			<point x="504" y="512"/>
			<point x="447" y="539" type="curve" smooth="yes"/>
			<point x="339" y="590"/>
			<point x="296" y="609"/>
			<point x="296" y="652" type="curve" smooth="yes"/>
			<point x="296" y="679"/>
			<point x="315" y="699"/>
			<point x="342" y="699" type="curve" smooth="yes"/>
			<point x="381" y="699"/>
			<point x="414" y="677"/>
			<point x="448" y="619" type="curve" smooth="yes"/>
			<point x="458" y="602"/>
			<point x="507" y="616"/>
			<point x="504" y="637" type="curve" smooth="yes"/>
			<point x="487" y="750" type="line"/>
			<point x="452" y="762"/>
			<point x="414" y="769"/>
			<point x="376" y="769" type="curve" smooth="yes"/>
			<point x="275" y="769"/>
			<point x="171" y="731"/>
			<point x="171" y="618" type="curve" smooth="yes"/>
			<point x="171" y="536"/>
			<point x="238" y="498"/>
			<point x="364" y="441" type="curve" smooth="yes"/>
			<point x="402" y="424"/>
			<point x="430" y="388"/>
			<point x="425" y="353" type="curve" smooth="yes"/>
			<point x="421" y="324"/>
			<point x="395" y="291"/>
			<point x="363" y="291" type="curve"/>
		</contour>
		<contour>
			<point x="295" y="-11" type="curve" smooth="yes"/>
			<point x="396" y="-11"/>
			<point x="500" y="27"/>
			<point x="500" y="130" type="curve" smooth="yes"/>
			<point x="500" y="222"/>
			<point x="433" y="260"/>
			<point x="307" y="317" type="curve" smooth="yes"/>
			<point x="269" y="334"/>
			<point x="241" y="370"/>
			<point x="246" y="405" type="curve" smooth="yes"/>
			<point x="250" y="434"/>
			<point x="276" y="467"/>
			<point x="308" y="467" type="curve"/>
			<point x="314" y="539" type="line"/>
			<point x="199" y="539"/>
			<point x="111" y="459"/>
			<point x="111" y="383" type="curve" smooth="yes"/>
			<point x="111" y="290"/>
			<point x="167" y="246"/>
			<point x="224" y="219" type="curve" smooth="yes"/>
			<point x="332" y="168"/>
			<point x="375" y="149"/>
			<point x="375" y="106" type="curve" smooth="yes"/>
			<point x="375" y="79"/>
			<point x="356" y="59"/>
			<point x="329" y="59" type="curve" smooth="yes"/>
			<point x="290" y="59"/>
			<point x="257" y="81"/>
			<point x="223" y="139" type="curve" smooth="yes"/>
			<point x="213" y="156"/>
			<point x="164" y="142"/>
			<point x="167" y="121" type="curve" smooth="yes"/>
			<point x="184" y="8" type="line"/>
			<point x="219" y="-4"/>
			<point x="257" y="-11"/>
		</contour>
	</outline>
</glyph>
<glyph name="copyright" format="2">
	<advance width="1040"/>
	<unicode hex="00A9"/>
	<outline>
		<contour>
			<point x="508" y="35" type="curve" smooth="yes"/>
			<point x="563" y="35"/>
			<point x="628" y="57"/>
			<point x="702" y="115" type="curve"/>
			<point x="680" y="175" type="line" name="_corner00"/>
			<point x="628" y="149"/>
			<point x="580" y="136"/>
			<point x="539" y="136" type="curve" smooth="yes"/>
			<point x="444" y="136"/>
			<point x="405" y="186"/>
			<point x="402" y="284" type="curve" smooth="yes"/>
			<point x="398" y="379"/>
			<point x="436" y="425"/>
			<point x="516" y="425" type="curve" smooth="yes"/>
			<point x="564" y="425"/>
			<point x="601" y="397"/>
			<point x="638" y="365" type="curve" smooth="yes"/>
			<point x="666" y="341"/>
			<point x="697" y="454"/>
			<point x="675" y="475" type="curve" smooth="yes"/>
			<point x="654" y="495"/>
			<point x="599" y="516"/>
			<point x="534" y="516" type="curve" smooth="yes"/>
			<point x="411" y="516"/>
			<point x="283" y="388"/>
			<point x="287" y="257" type="curve" smooth="yes"/>
			<point x="292" y="132"/>
			<point x="385" y="35"/>
		</contour>
		<contour>
			<point x="520" y="-104" type="curve" smooth="yes"/>
			<point x="313" y="-104"/>
			<point x="145" y="64"/>
			<point x="145" y="271" type="curve" smooth="yes"/>
			<point x="145" y="478"/>
			<point x="313" y="646"/>
			<point x="520" y="646" type="curve" smooth="yes"/>
			<point x="727" y="646"/>
			<point x="895" y="478"/>
			<point x="895" y="271" type="curve" smooth="yes"/>
			<point x="895" y="64"/>
			<point x="727" y="-104"/>
		</contour>
		<contour>
			<point x="520" y="-199" type="curve" smooth="yes"/>
			<point x="779" y="-199"/>
			<point x="990" y="12"/>
			<point x="990" y="271" type="curve" smooth="yes"/>
			<point x="990" y="530"/>
			<point x="779" y="741"/>
			<point x="520" y="741" type="curve" smooth="yes"/>
			<point x="261" y="741"/>
			<point x="50" y="530"/>
			<point x="50" y="271" type="curve" smooth="yes"/>
			<point x="50" y="12"/>
			<point x="261" y="-199"/>
		</contour>
	</outline>
</glyph>
<glyph name="degree" format="2">
	<advance width="380"/>
	<unicode hex="00B0"/>
	<outline>
		<contour>
			<point x="185" y="510" type="curve" smooth="yes"/>
			<point x="267" y="510"/>
			<point x="337" y="570"/>
			<point x="340" y="660" type="curve" smooth="yes"/>
			<point x="343" y="750"/>
			<point x="278" y="810"/>
			<point x="195" y="810" type="curve" smooth="yes"/>
			<point x="113" y="810"/>
			<point x="43" y="750"/>
			<point x="40" y="660" type="curve" smooth="yes"/>
			<point x="37" y="570"/>
			<point x="102" y="510"/>
		</contour>
		<contour>
			<point x="199" y="585" type="curve" smooth="yes"/>
			<point x="157" y="585"/>
			<point x="123" y="613"/>
			<point x="118" y="660" type="curve" smooth="yes"/>
			<point x="113" y="707"/>
			<point x="141" y="735"/>
			<point x="181" y="735" type="curve" smooth="yes"/>
			<point x="223" y="735"/>
			<point x="257" y="707"/>
			<point x="262" y="660" type="curve" smooth="yes"/>
			<point x="267" y="613"/>
			<point x="239" y="585"/>
		</contour>
	</outline>
</glyph>
<glyph name="paragraph" format="2">
	<advance width="809"/>
	<unicode hex="00B6"/>
	<outline>
		<contour>
			<point x="401" y="-250" type="line" name="_corner00"/>
			<point x="481" y="-250" type="line" name="_corner03"/>
			<point x="481" y="760" type="line" name="_corner04"/>
			<point x="350" y="760" type="line" smooth="yes"/>
			<point x="207" y="760"/>
			<point x="100" y="663"/>
			<point x="100" y="530" type="curve" smooth="yes"/>
			<point x="100" y="397"/>
			<point x="207" y="300"/>
			<point x="350" y="300" type="curve" smooth="yes"/>
			<point x="401" y="300" type="line" name="_corner07"/>
		</contour>
		<contour>
			<point x="551" y="-250" type="line" name="_corner05"/>
			<point x="631" y="-250" type="line" name="_corner01"/>
			<point x="631" y="760" type="line" name="_corner02"/>
			<point x="551" y="760" type="line" name="_corner06"/>
		</contour>
	</outline>
</glyph>
<glyph name="AE" format="2">
	<advance width="1067"/>
	<unicode hex="00C6"/>
	<anchor x="534" y="0" name="bottom"/>
	<anchor x="534" y="760" name="top"/>
	<outline>
		<contour>
			<point x="116" y="0" type="line" name="_corner01"/>
			<point x="506" y="629" type="line" name="_corner08"/>
			<point x="486" y="-1" type="line" name="_corner06"/>
			<point x="991" y="-1" type="line" name="_corner02"/>
			<point x="1037" y="189" type="line"/>
			<point x="979" y="213" type="line" name="_corner03"/>
			<point x="922" y="103"/>
			<point x="843" y="75"/>
			<point x="761" y="75" type="curve" smooth="yes"/>
			<point x="634" y="75"/>
			<point x="636" y="85"/>
			<point x="636" y="144" type="curve" smooth="yes"/>
			<point x="636" y="355" type="line"/>
			<point x="740" y="355" type="line" smooth="yes"/>
			<point x="805" y="355"/>
			<point x="817" y="342"/>
			<point x="846" y="271" type="curve" smooth="yes"/>
			<point x="851" y="258"/>
			<point x="898" y="271"/>
			<point x="896" y="283" type="curve" smooth="yes"/>
			<point x="891" y="316"/>
			<point x="890" y="344"/>
			<point x="890" y="390" type="curve" smooth="yes"/>
			<point x="890" y="436"/>
			<point x="891" y="464"/>
			<point x="896" y="497" type="curve" smooth="yes"/>
			<point x="898" y="509"/>
			<point x="850" y="518"/>
			<point x="846" y="509" type="curve" smooth="yes"/>
			<point x="817" y="438"/>
			<point x="805" y="425"/>
			<point x="740" y="425" type="curve" smooth="yes"/>
			<point x="636" y="425" type="line"/>
			<point x="636" y="615" type="line" smooth="yes"/>
			<point x="636" y="674"/>
			<point x="634" y="684"/>
			<point x="761" y="684" type="curve" smooth="yes"/>
			<point x="833" y="684"/>
			<point x="892" y="676"/>
			<point x="949" y="566" type="curve"/>
			<point x="1007" y="580" type="line" name="_corner04"/>
			<point x="981" y="770" type="line" name="_corner05"/>
			<point x="831" y="760" type="line"/>
			<point x="486" y="760" type="line" name="_corner07"/>
			<point x="11" y="0" type="line" name="_corner00"/>
		</contour>
		<contour>
			<point x="241" y="320" type="line"/>
			<point x="241" y="245" type="line"/>
			<point x="621" y="355" type="line"/>
			<point x="621" y="420" type="line"/>
		</contour>
	</outline>
</glyph>
<glyph name="Eth" format="2">
	<advance width="850"/>
	<unicode hex="00D0"/>
	<outline>
		<component base="D"/>
		<contour>
			<point x="31" y="430" type="line"/>
			<point x="31" y="350" type="line" name="_corner00"/>
			<point x="421" y="350" type="line"/>
			<point x="421" y="430" type="line" name="_corner01"/>
		</contour>
	</outline>
</glyph>
<glyph name="multiply" format="2">
	<advance width="600"/>
	<unicode hex="00D7"/>
	<outline>
		<contour>
			<point x="481" y="373" type="line"/>
			<point x="424" y="430" type="line" name="_corner00"/>
			<point x="311" y="327" type="line"/>
			<point x="198" y="430" type="line"/>
			<point x="141" y="373" type="line" name="_corner02"/>
			<point x="244" y="260" type="line"/>
			<point x="141" y="147" type="line"/>
			<point x="198" y="90" type="line" name="_corner01"/>
			<point x="311" y="193" type="line"/>
			<point x="424" y="90" type="line"/>
			<point x="481" y="147" type="line" name="_corner03"/>
			<point x="378" y="260" type="line"/>
		</contour>
	</outline>
</glyph>
<glyph name="Oslash" format="2">
	<advance width="880"/>
	<unicode hex="00D8"/>
	<outline>
		<component base="O"/>
		<contour>
			<point x="773" y="814" type="line" name="_corner01"/>
			<point x="46" y="1" type="line"/>
			<point x="107" y="-54" type="line" name="_corner00"/>
			<point x="834" y="759" type="line"/>
		</contour>
	</outline>
</glyph>
<glyph name="Thorn" format="2">
	<advance width="670"/>
	<unicode hex="00DE"/>
	<anchor x="335" y="0" name="bottom"/>
	<anchor x="335" y="760" name="top"/>
	<outline>
		<contour>
			<point x="109" y="0" type="line" name="_corner01"/>
			<point x="259" y="0" type="line" name="_corner00"/>
			<point x="259" y="170" type="line"/>
			<point x="447" y="147"/>
			<point x="640" y="227"/>
			<point x="640" y="399" type="curve" smooth="yes"/>
			<point x="640" y="500"/>
			<point x="568" y="620"/>
			<point x="366" y="620" type="curve" smooth="yes"/>
			<point x="109" y="620" type="line"/>
		</contour>
		<contour>
			<point x="259" y="250" type="curve"/>
			<point x="259" y="545" type="line"/>
			<point x="368" y="560"/>
			<point x="485" y="523"/>
			<point x="485" y="390" type="curve" smooth="yes"/>
			<point x="485" y="252"/>
			<point x="359" y="225"/>
		</contour>
		<contour>
			<point x="259" y="600" type="line"/>
			<point x="259" y="760" type="line" name="_corner02"/>
			<point x="109" y="760" type="line" name="_corner03"/>
			<point x="109" y="600" type="line"/>
		</contour>
	</outline>
</glyph>
<glyph name="germandbls" format="2">
	<advance width="700"/>
	<unicode hex="00DF"/>
	<anchor x="350" y="0" name="bottom"/>
	<anchor x="350" y="800" name="top"/>
	<outline>
		<contour>
			<point x="552" y="654" type="curve" smooth="yes"/>
			<point x="552" y="718"/>
			<point x="504" y="809"/>
			<point x="384" y="809" type="curve" smooth="yes"/>
			<point x="288" y="809"/>
			<point x="173" y="746"/>
			<point x="132" y="612" type="curve" smooth="yes"/>
			<point x="93" y="483"/>
			<point x="104" y="488"/>
			<point x="47" y="460" type="curve" smooth="yes"/>
			<point x="34" y="453"/>
			<point x="42" y="390"/>
			<point x="57" y="390" type="curve" smooth="yes"/>
			<point x="108" y="390" type="line" name="_corner02"/>
			<point x="108" y="0" type="line" name="_corner00"/>
			<point x="243" y="0" type="line" name="_corner01"/>
			<point x="243" y="166" type="line"/>
			<point x="243" y="579" type="line" smooth="yes"/>
			<point x="243" y="662"/>
			<point x="256" y="701"/>
			<point x="330" y="701" type="curve" smooth="yes"/>
			<point x="425" y="701"/>
			<point x="451" y="584"/>
			<point x="389" y="493" type="curve" smooth="yes"/>
			<point x="316" y="386"/>
			<point x="300" y="326"/>
			<point x="437" y="233" type="curve" smooth="yes"/>
			<point x="489" y="198"/>
			<point x="540" y="163"/>
			<point x="533" y="115" type="curve" smooth="yes"/>
			<point x="525" y="55"/>
			<point x="425" y="24"/>
			<point x="366" y="154" type="curve" smooth="yes"/>
			<point x="359" y="168"/>
			<point x="304" y="159"/>
			<point x="308" y="135" type="curve" smooth="yes"/>
			<point x="325" y="25" type="line"/>
			<point x="464" y="-44"/>
			<point x="660" y="-5"/>
			<point x="660" y="152" type="curve" smooth="yes"/>
			<point x="660" y="204"/>
			<point x="631" y="252"/>
			<point x="582" y="290" type="curve" smooth="yes"/>
			<point x="486" y="365"/>
			<point x="394" y="394"/>
			<point x="484" y="499" type="curve" smooth="yes"/>
			<point x="515" y="535"/>
			<point x="552" y="579"/>
		</contour>
	</outline>
</glyph>
<glyph name="ae" format="2">
	<advance width="797"/>
	<unicode hex="00E6"/>
	<anchor x="399" y="0" name="bottom"/>
	<anchor x="399" y="500" name="top"/>
	<outline>
		<contour>
			<point x="427" y="106" type="curve"/>
			<point x="396" y="160" type="line"/>
			<point x="370" y="121"/>
			<point x="318" y="80"/>
			<point x="274" y="80" type="curve" smooth="yes"/>
			<point x="185" y="80"/>
			<point x="183" y="192"/>
			<point x="245" y="209" type="curve" smooth="yes"/>
			<point x="366" y="242" type="line"/>
			<point x="367" y="293" type="line"/>
			<point x="183" y="258" type="line" smooth="yes"/>
			<point x="5" y="224"/>
			<point x="48" y="-10"/>
			<point x="219" y="-10" type="curve" smooth="yes"/>
			<point x="304" y="-10"/>
			<point x="351" y="20"/>
		</contour>
		<contour>
			<point x="318" y="242" type="curve"/>
			<point x="335" y="77"/>
			<point x="420" y="-10"/>
			<point x="543" y="-10" type="curve" smooth="yes"/>
			<point x="598" y="-10"/>
			<point x="664" y="12"/>
			<point x="740" y="70" type="curve"/>
			<point x="709" y="130" type="line" name="_corner01"/>
			<point x="546" y="42"/>
			<point x="449" y="144"/>
			<point x="449" y="294" type="curve" smooth="yes"/>
			<point x="449" y="489"/>
			<point x="618" y="446"/>
			<point x="605" y="325" type="curve"/>
			<point x="405" y="318" type="line"/>
			<point x="398" y="258" type="line"/>
			<point x="741" y="258" type="line" name="_corner02"/>
			<point x="741" y="455"/>
			<point x="638" y="511"/>
			<point x="554" y="511" type="curve" smooth="yes"/>
			<point x="447" y="511"/>
			<point x="345" y="403"/>
		</contour>
		<contour>
			<point x="432" y="140" type="line"/>
			<point x="439" y="308" type="line" smooth="yes"/>
			<point x="447" y="499"/>
			<point x="278" y="591"/>
			<point x="80" y="410" type="curve"/>
			<point x="111" y="365" type="line" name="_corner00"/>
			<point x="209" y="435"/>
			<point x="307" y="411"/>
			<point x="313" y="321" type="curve" smooth="yes"/>
			<point x="316" y="274" type="line"/>
		</contour>
	</outline>
</glyph>
<glyph name="eth" format="2">
	<advance width="558"/>
	<unicode hex="00F0"/>
	<anchor x="279" y="0" name="bottom"/>
	<anchor x="279" y="800" name="top"/>
	<outline>
		<contour>
			<point x="267" y="-8" type="curve" smooth="yes"/>
			<point x="418" y="-8"/>
			<point x="542" y="96"/>
			<point x="532" y="286" type="curve" smooth="yes"/>
			<point x="523" y="451"/>
			<point x="343" y="676"/>
			<point x="89" y="746" type="curve"/>
			<point x="61" y="682" type="line" name="_corner00"/>
			<point x="259" y="603"/>
			<point x="380" y="431"/>
			<point x="380" y="237" type="curve" smooth="yes"/>
			<point x="380" y="134"/>
			<point x="342" y="71"/>
			<point x="283" y="71" type="curve" smooth="yes"/>
			<point x="244" y="71"/>
			<point x="194" y="96"/>
			<point x="194" y="220" type="curve" smooth="yes"/>
			<point x="194" y="322"/>
			<point x="248" y="398"/>
			<point x="400" y="397" type="curve"/>
			<point x="411" y="453" type="line"/>
			<point x="227" y="481"/>
			<point x="48" y="395"/>
			<point x="48" y="216" type="curve" smooth="yes"/>
			<point x="48" y="90"/>
			<point x="138" y="-8"/>
		</contour>
		<contour>
			<point x="90" y="532" type="line"/>
			<point x="137" y="484" type="line" name="_corner01"/>
			<point x="368" y="706" type="line"/>
			<point x="320" y="754" type="line" name="_corner02"/>
		</contour>
	</outline>
</glyph>
<glyph name="divide" format="2">
	<advance width="622"/>
	<unicode hex="00F7"/>
	<outline>
		<contour>
			<point x="61" y="305" type="line"/>
			<point x="61" y="215" type="line" name="_corner00"/>
			<point x="311" y="220" type="line"/>
			<point x="561" y="215" type="line"/>
			<point x="561" y="305" type="line" name="_corner01"/>
			<point x="311" y="300" type="line"/>
		</contour>
		<component base="period" xScale="0.8" yScale="0.8" xOffset="191" yOffset="11"/>
		<component base="period" xScale="0.8" yScale="0.8" xOffset="191" yOffset="391"/>
	</outline>
</glyph>
<glyph name="oslash" format="2">
	<advance width="600"/>
	<unicode hex="00F8"/>
	<outline>
		<component base="o"/>
		<contour>
			<point x="489" y="574" type="line" name="_corner01"/>
			<point x="32" y="-19" type="line"/>
			<point x="93" y="-69" type="line" name="_corner00"/>
			<point x="550" y="524" type="line"/>
		</contour>
	</outline>
</glyph>
<glyph name="thorn" format="2">
	<advance width="635"/>
	<unicode hex="00FE"/>
	<anchor x="318" y="0" name="bottom"/>
	<anchor x="318" y="500" name="top"/>
	<outline>
		<contour>
			<point x="67" y="760" type="curve" name="_corner03"/>
			<point x="92" y="637"/>
			<point x="115" y="570"/>
			<point x="112" y="335" type="curve" smooth="yes"/>
			<point x="108" y="-250" type="line" name="_corner01"/>
			<point x="233" y="-250" type="line" name="_corner00"/>
			<point x="233" y="530" type="line" smooth="yes"/>
			<point x="233" y="625"/>
			<point x="238" y="720"/>
			<point x="243" y="815" type="curve" name="_corner02"/>
			<point x="197" y="798"/>
			<point x="113" y="772"/>
		</contour>
		<contour>
			<point x="582" y="268" type="curve" smooth="yes"/>
			<point x="582" y="423"/>
			<point x="500" y="508"/>
			<point x="402" y="508" type="curve" smooth="yes"/>
			<point x="318" y="508"/>
			<point x="222" y="445"/>
			<point x="157" y="310" type="curve"/>
			<point x="196" y="310" type="line" name="_corner04"/>
			<point x="252" y="376"/>
			<point x="299" y="402"/>
			<point x="337" y="402" type="curve" smooth="yes"/>
			<point x="405" y="402"/>
			<point x="447" y="340"/>
			<point x="447" y="242" type="curve" smooth="yes"/>
			<point x="447" y="145"/>
			<point x="423" y="68"/>
			<point x="344" y="68" type="curve" smooth="yes"/>
			<point x="285" y="68"/>
			<point x="238" y="116"/>
			<point x="202" y="150" type="curve"/>
			<point x="177" y="5" type="line"/>
			<point x="213" y="-4"/>
			<point x="249" y="-8"/>
			<point x="284" y="-8" type="curve" smooth="yes"/>
			<point x="445" y="-8"/>
			<point x="582" y="84"/>
		</contour>
	</outline>
</glyph>
<glyph name="dcroat" format="2">
	<advance width="600"/>
	<unicode hex="0111"/>
	<outline>
		<component base="d"/>
		<contour>
			<point x="282" y="670" type="line"/>
			<point x="282" y="590" type="line" name="_corner00"/>
			<point x="642" y="590" type="line"/>
			<point x="642" y="670" type="line" name="_corner01"/>
			<point x="462" y="665" type="line"/>
		</contour>
	</outline>
</glyph>
<glyph name="Hbar" format="2">
	<advance width="828"/>
	<unicode hex="0126"/>
	<outline>
		<component base="H"/>
		<contour>
			<point x="41" y="580" type="line"/>
			<point x="41" y="520" type="line" name="_corner00"/>
			<point x="787" y="520" type="line"/>
			<point x="787" y="580" type="line" name="_corner01"/>
		</contour>
	</outline>
</glyph>
<glyph name="idotless" format="2">
	<advance width="351"/>
	<unicode hex="0131"/>
	<anchor x="176" y="0" name="bottom"/>
	<anchor x="299" y="0" name="ogonek"/>
	<anchor x="158" y="500" name="top"/>
	<outline>
		<contour>
			<point x="108" y="0" type="line" name="_corner03"/>
			<point x="233" y="0" type="line" name="_corner00"/>
			<point x="233" y="515" type="line" name="_corner01"/>
			<point x="203" y="503"/>
			<point x="139" y="482"/>
			<point x="108" y="470" type="curve" name="_corner02"/>
		</contour>
	</outline>
</glyph>
<glyph name="Lslash" format="2">
	<advance width="711"/>
	<unicode hex="0141"/>
	<outline>
		<component base="L"/>
		<contour>
			<point x="29" y="329" type="line"/>
			<point x="70" y="273" type="line" name="_corner00"/>
			<point x="409" y="507" type="line"/>
			<point x="368" y="563" type="line" name="_corner01"/>
		</contour>
	</outline>
</glyph>
<glyph name="lslash" format="2">
	<advance width="346"/>
	<unicode hex="0142"/>
	<outline>
		<component base="l"/>
		<contour>
			<point x="-7" y="349" type="line"/>
			<point x="29" y="289" type="line" name="_corner00"/>
			<point x="353" y="483" type="line"/>
			<point x="317" y="543" type="line" name="_corner01"/>
		</contour>
	</outline>
</glyph>
<glyph name="OE" format="2">
	<advance width="1182"/>
	<unicode hex="0152"/>
	<anchor x="591" y="0" name="bottom"/>
	<anchor x="591" y="760" name="top"/>
	<outline>
		<contour>
			<point x="601" y="-1" type="line"/>
			<point x="1106" y="-1" type="line" name="_corner00"/>
			<point x="1152" y="189" type="line"/>
			<point x="1094" y="213" type="line" name="_corner01"/>
			<point x="1037" y="103"/>
			<point x="958" y="75"/>
			<point x="876" y="75" type="curve" smooth="yes"/>
			<point x="749" y="75"/>
			<point x="751" y="85"/>
			<point x="751" y="144" type="curve" smooth="yes"/>
			<point x="751" y="355" type="line"/>
			<point x="855" y="355" type="line" smooth="yes"/>
			<point x="920" y="355"/>
			<point x="932" y="342"/>
			<point x="961" y="271" type="curve" smooth="yes"/>
			<point x="966" y="258"/>
			<point x="1013" y="271"/>
			<point x="1011" y="283" type="curve" smooth="yes"/>
			<point x="1006" y="316"/>
			<point x="1005" y="344"/>
			<point x="1005" y="390" type="curve" smooth="yes"/>
			<point x="1005" y="436"/>
			<point x="1006" y="464"/>
			<point x="1011" y="497" type="curve" smooth="yes"/>
			<point x="1013" y="509"/>
			<point x="965" y="518"/>
			<point x="961" y="509" type="curve" smooth="yes"/>
			<point x="932" y="438"/>
			<point x="920" y="425"/>
			<point x="855" y="425" type="curve" smooth="yes"/>
			<point x="751" y="425" type="line"/>
			<point x="751" y="615" type="line" smooth="yes"/>
			<point x="751" y="674"/>
			<point x="749" y="684"/>
			<point x="876" y="684" type="curve" smooth="yes"/>
			<point x="948" y="684"/>
			<point x="1007" y="676"/>
			<point x="1064" y="566" type="curve"/>
			<point x="1122" y="580" type="line" name="_corner02"/>
			<point x="1096" y="770" type="line" name="_corner03"/>
			<point x="946" y="760" type="line"/>
			<point x="601" y="760" type="line"/>
		</contour>
		<contour>
			<point x="504" y="760" type="line" smooth="yes"/>
			<point x="229" y="760"/>
			<point x="50" y="597"/>
			<point x="50" y="365" type="curve" smooth="yes"/>
			<point x="50" y="147"/>
			<point x="221" y="0"/>
			<point x="476" y="0" type="curve" smooth="yes"/>
			<point x="751" y="0" type="line"/>
			<point x="751" y="760" type="line"/>
		</contour>
		<contour>
			<point x="601" y="675" type="curve" name="_corner05"/>
			<point x="601" y="80" type="line" name="_corner04"/>
			<point x="464" y="56"/>
			<point x="217" y="77"/>
			<point x="217" y="396" type="curve" smooth="yes"/>
			<point x="217" y="675"/>
			<point x="455" y="709"/>
		</contour>
	</outline>
</glyph>
<glyph name="oe" format="2">
	<advance width="892"/>
	<unicode hex="0153"/>
	<anchor x="446" y="0" name="bottom"/>
	<anchor x="446" y="500" name="top"/>
	<outline>
		<contour>
			<point x="279" y="-10" type="curve" smooth="yes"/>
			<point x="456" y="-10"/>
			<point x="524" y="128"/>
			<point x="524" y="262" type="curve" smooth="yes"/>
			<point x="524" y="388"/>
			<point x="447" y="510"/>
			<point x="315" y="510" type="curve" smooth="yes"/>
			<point x="138" y="510"/>
			<point x="50" y="372"/>
			<point x="50" y="238" type="curve" smooth="yes"/>
			<point x="50" y="112"/>
			<point x="137" y="-10"/>
		</contour>
		<contour>
			<point x="317" y="65" type="curve" smooth="yes"/>
			<point x="237" y="58"/>
			<point x="191" y="159"/>
			<point x="191" y="281" type="curve" smooth="yes"/>
			<point x="191" y="382"/>
			<point x="220" y="430"/>
			<point x="277" y="435" type="curve" smooth="yes"/>
			<point x="358" y="442"/>
			<point x="403" y="341"/>
			<point x="403" y="219" type="curve" smooth="yes"/>
			<point x="403" y="118"/>
			<point x="374" y="70"/>
		</contour>
		<contour>
			<point x="430" y="232" type="curve" smooth="yes"/>
			<point x="430" y="77"/>
			<point x="535" y="-10"/>
			<point x="638" y="-10" type="curve" smooth="yes"/>
			<point x="693" y="-10"/>
			<point x="759" y="12"/>
			<point x="835" y="70" type="curve"/>
			<point x="804" y="130" type="line" name="_corner00"/>
			<point x="641" y="42"/>
			<point x="544" y="144"/>
			<point x="544" y="294" type="curve" smooth="yes"/>
			<point x="544" y="489"/>
			<point x="713" y="446"/>
			<point x="700" y="325" type="curve"/>
			<point x="500" y="318" type="line"/>
			<point x="493" y="258" type="line"/>
			<point x="836" y="258" type="line" name="_corner01"/>
			<point x="836" y="455"/>
			<point x="733" y="511"/>
			<point x="649" y="511" type="curve" smooth="yes"/>
			<point x="542" y="511"/>
			<point x="430" y="403"/>
		</contour>
	</outline>
</glyph>
<glyph name="rcaron" format="2">
	<advance width="433"/>
	<unicode hex="0159"/>
	<outline>
		<contour>
			<point x="108" y="0" type="line" name="_corner03"/>
			<point x="233" y="0" type="line" name="_corner00"/>
			<point x="233" y="244" type="line" smooth="yes"/>
			<point x="233" y="337"/>
			<point x="261" y="364"/>
			<point x="366" y="332" type="curve" smooth="yes"/>
			<point x="382" y="327"/>
			<point x="437" y="478"/>
			<point x="372" y="500" type="curve" smooth="yes"/>
			<point x="317" y="519"/>
			<point x="301" y="491"/>
			<point x="233" y="386" type="curve"/>
			<point x="233" y="515" type="line" name="_corner01"/>
			<point x="203" y="503"/>
			<point x="139" y="482"/>
			<point x="108" y="470" type="curve" name="_corner02"/>
		</contour>
		<contour>
			<point x="364" y="678" type="curve" smooth="yes"/>
			<point x="273" y="576" type="line" smooth="yes"/>
			<point x="249" y="550"/>
			<point x="238" y="551"/>
			<point x="215" y="576" type="curve" smooth="yes"/>
			<point x="124" y="678" type="line" smooth="yes"/>
			<point x="112" y="692"/>
			<point x="160" y="745"/>
			<point x="174" y="738" type="curve" smooth="yes"/>
			<point x="244" y="703" type="line"/>
			<point x="314" y="738" type="line" smooth="yes"/>
			<point x="328" y="745"/>
			<point x="376" y="691"/>
		</contour>
	</outline>
</glyph>
<glyph name="jdotless" format="2">
	<advance width="328"/>
	<unicode hex="0237"/>
	<anchor x="164" y="-250" name="bottom"/>
	<anchor x="164" y="500" name="top"/>
	<outline>
		<contour>
			<point x="2" y="-202" type="curve"/>
			<point x="43" y="-260" type="line" name="_corner00"/>
			<point x="168" y="-193"/>
			<point x="234" y="-138"/>
			<point x="234" y="-27" type="curve" smooth="yes"/>
			<point x="234" y="515" type="line" name="_corner01"/>
			<point x="204" y="503"/>
			<point x="145" y="486"/>
			<point x="104" y="470" type="curve" name="_corner02"/>
			<point x="104" y="-9" type="line" smooth="yes"/>
			<point x="104" y="-104"/>
			<point x="89" y="-147"/>
		</contour>
	</outline>
</glyph>
<glyph name="acutecomb" format="2">
	<advance width="306"/>
	<unicode hex="0301"/>
	<anchor x="153" y="500" name="_top"/>
	<anchor x="153" y="784" name="top"/>
	<outline>
		<contour>
			<point x="84" y="574" type="curve"/>
			<point x="191" y="645"/>
			<point x="245" y="685"/>
			<point x="262" y="700" type="curve"/>
			<point x="266" y="725"/>
			<point x="208" y="787"/>
			<point x="180" y="783" type="curve"/>
			<point x="165" y="768"/>
			<point x="123" y="720"/>
			<point x="47" y="618" type="curve"/>
			<point x="37" y="608"/>
			<point x="73" y="567"/>
		</contour>
	</outline>
</glyph>
<glyph name="circumflexcomb" format="2">
	<advance width="465"/>
	<unicode hex="0302"/>
	<anchor x="233" y="500" name="_top"/>
	<anchor x="233" y="769" name="top"/>
	<outline>
		<contour>
			<point x="73" y="630" type="curve" smooth="yes"/>
			<point x="204" y="752" type="line" smooth="yes"/>
			<point x="229" y="775"/>
			<point x="237" y="775"/>
			<point x="262" y="752" type="curve" smooth="yes"/>
			<point x="393" y="630" type="line" smooth="yes"/>
			<point x="405" y="618"/>
			<point x="370" y="572"/>
			<point x="353" y="580" type="curve" smooth="yes"/>
			<point x="233" y="635" type="line"/>
			<point x="113" y="580" type="line" smooth="yes"/>
			<point x="96" y="572"/>
			<point x="60" y="618"/>
		</contour>
	</outline>
</glyph>
<glyph name="tildecomb" format="2">
	<advance width="502"/>
	<unicode hex="0303"/>
	<anchor x="251" y="500" name="_top"/>
	<anchor x="251" y="724" name="top"/>
	<outline>
		<contour>
			<point x="451" y="678" type="curve" smooth="yes"/>
			<point x="470" y="709"/>
			<point x="404" y="739"/>
			<point x="389" y="716" type="curve" smooth="yes"/>
			<point x="338" y="639"/>
			<point x="176" y="829"/>
			<point x="51" y="628" type="curve" smooth="yes"/>
			<point x="32" y="598"/>
			<point x="98" y="567"/>
			<point x="113" y="590" type="curve" smooth="yes"/>
			<point x="169" y="674"/>
			<point x="326" y="476"/>
		</contour>
	</outline>
</glyph>
<glyph name="macroncomb" format="2">
	<advance width="462"/>
	<unicode hex="0304"/>
	<anchor x="231" y="500" name="_top"/>
	<anchor x="231" y="710" name="top"/>
	<outline>
		<contour>
			<point x="401" y="620" type="line"/>
			<point x="401" y="710" type="line" name="_corner00"/>
			<point x="61" y="710" type="line"/>
			<point x="61" y="620" type="line" name="_corner01"/>
			<point x="231" y="625" type="line"/>
		</contour>
	</outline>
</glyph>
<glyph name="brevecomb" format="2">
	<advance width="480"/>
	<unicode hex="0306"/>
	<anchor x="240" y="500" name="_top"/>
	<anchor x="240" y="763" name="top"/>
	<outline>
		<contour>
			<point x="70" y="729" type="curve" smooth="yes"/>
			<point x="66" y="744"/>
			<point x="122" y="765"/>
			<point x="130" y="749" type="curve" smooth="yes"/>
			<point x="183" y="645"/>
			<point x="297" y="645"/>
			<point x="350" y="749" type="curve" smooth="yes"/>
			<point x="358" y="765"/>
			<point x="414" y="744"/>
			<point x="410" y="729" type="curve" smooth="yes"/>
			<point x="353" y="500"/>
			<point x="127" y="500"/>
		</contour>
	</outline>
</glyph>
<glyph name="dotaccentcomb" format="2">
	<advance width="270"/>
	<unicode hex="0307"/>
	<anchor x="135" y="500" name="_top"/>
	<anchor x="135" y="785" name="top"/>
	<outline>
		<contour>
			<point x="148" y="615" type="curve"/>
			<point x="192" y="635"/>
			<point x="220" y="682"/>
			<point x="220" y="713" type="curve"/>
			<point x="200" y="758"/>
			<point x="152" y="785"/>
			<point x="122" y="785" type="curve"/>
			<point x="78" y="765"/>
			<point x="50" y="718"/>
			<point x="50" y="687" type="curve"/>
			<point x="70" y="642"/>
			<point x="118" y="615"/>
		</contour>
	</outline>
</glyph>
<glyph name="ringcomb" format="2">
	<advance width="380"/>
	<unicode hex="030A"/>
	<anchor x="190" y="460" name="_top"/>
	<anchor x="190" y="800" name="top"/>
	<outline>
		<contour>
			<point x="185" y="520" type="curve" smooth="yes"/>
			<point x="262" y="520"/>
			<point x="327" y="576"/>
			<point x="330" y="660" type="curve" smooth="yes"/>
			<point x="333" y="744"/>
			<point x="272" y="800"/>
			<point x="195" y="800" type="curve" smooth="yes"/>
			<point x="118" y="800"/>
			<point x="53" y="744"/>
			<point x="50" y="660" type="curve" smooth="yes"/>
			<point x="47" y="576"/>
			<point x="108" y="520"/>
		</contour>
		<contour>
			<point x="197" y="600" type="curve" smooth="yes"/>
			<point x="164" y="600"/>
			<point x="137" y="623"/>
			<point x="133" y="660" type="curve" smooth="yes"/>
			<point x="129" y="697"/>
			<point x="151" y="720"/>
			<point x="183" y="720" type="curve" smooth="yes"/>
			<point x="216" y="720"/>
			<point x="243" y="697"/>
			<point x="247" y="660" type="curve" smooth="yes"/>
			<point x="251" y="623"/>
			<point x="229" y="600"/>
		</contour>
	</outline>
</glyph>
<glyph name="hungarumlautcomb" format="2">
	<advance width="426"/>
	<unicode hex="030B"/>
	<anchor x="213" y="500" name="_top"/>
	<anchor x="213" y="790" name="top"/>
	<outline>
		<contour>
			<point x="95" y="564" type="curve"/>
			<point x="161" y="654"/>
			<point x="208" y="717"/>
			<point x="216" y="735" type="curve"/>
			<point x="212" y="757"/>
			<point x="137" y="799"/>
			<point x="116" y="788" type="curve"/>
			<point x="108" y="771"/>
			<point x="80" y="697"/>
			<point x="50" y="593" type="curve"/>
			<point x="45" y="582"/>
			<point x="88" y="556"/>
		</contour>
		<contour>
			<point x="255" y="554" type="curve"/>
			<point x="321" y="644"/>
			<point x="368" y="707"/>
			<point x="376" y="725" type="curve"/>
			<point x="372" y="747"/>
			<point x="297" y="789"/>
			<point x="276" y="778" type="curve"/>
			<point x="268" y="761"/>
			<point x="240" y="687"/>
			<point x="210" y="583" type="curve"/>
			<point x="205" y="572"/>
			<point x="248" y="546"/>
		</contour>
	</outline>
</glyph>
<glyph name="cedillacomb" format="2">
	<advance width="307"/>
	<unicode hex="0327"/>
	<anchor x="154" y="0" name="_bottom"/>
	<anchor x="154" y="-276" name="bottom"/>
	<outline>
		<contour>
			<point x="74" y="-208" type="curve"/>
			<point x="55" y="-256" type="line" name="_corner00"/>
			<point x="187" y="-333"/>
			<point x="324" y="-171"/>
			<point x="221" y="-90" type="curve" smooth="yes"/>
			<point x="184" y="-61" type="line" smooth="yes"/>
			<point x="159" y="-41"/>
			<point x="178" y="-19"/>
			<point x="211" y="4" type="curve"/>
			<point x="150" y="8" type="line"/>
			<point x="100" y="-29"/>
			<point x="47" y="-87"/>
			<point x="95" y="-124" type="curve" smooth="yes"/>
			<point x="135" y="-155" type="line" smooth="yes"/>
			<point x="181" y="-191"/>
			<point x="146" y="-248"/>
		</contour>
	</outline>
</glyph>
<glyph name="ogonekcomb" format="2">
	<advance width="307"/>
	<unicode hex="0328"/>
	<anchor x="200" y="13" name="_ogonek"/>
	<outline>
		<contour>
			<point x="249" y="-160" type="curve" smooth="yes"/>
			<point x="124" y="-120"/>
			<point x="118" y="-49"/>
			<point x="200" y="13" type="curve"/>
			<point x="150" y="33" type="line"/>
			<point x="43" y="-56"/>
			<point x="-14" y="-209"/>
			<point x="165" y="-265" type="curve" smooth="yes"/>
			<point x="199" y="-276"/>
			<point x="282" y="-171"/>
		</contour>
	</outline>
</glyph>
<glyph name="Germandbls" format="2">
	<advance width="873"/>
	<unicode hex="1E9E"/>
	<anchor x="437" y="0" name="bottom"/>
	<anchor x="437" y="760" name="top"/>
	<outline>
		<contour>
			<point x="109" y="0" type="line" name="_corner01"/>
			<point x="259" y="0" type="line" name="_corner02"/>
			<point x="259" y="680" type="line" name="_corner03"/>
			<point x="550" y="680" type="line"/>
			<point x="428" y="346" type="line" name="_corner04"/>
			<point x="575" y="355"/>
			<point x="685" y="303"/>
			<point x="685" y="186" type="curve" smooth="yes"/>
			<point x="685" y="128"/>
			<point x="641" y="74"/>
			<point x="582" y="74" type="curve" smooth="yes"/>
			<point x="533" y="74"/>
			<point x="473" y="112"/>
			<point x="419" y="217" type="curve" smooth="yes"/>
			<point x="412" y="231"/>
			<point x="359" y="218"/>
			<point x="360" y="205" type="curve" smooth="yes"/>
			<point x="375" y="56" type="line"/>
			<point x="433" y="11"/>
			<point x="497" y="-8"/>
			<point x="559" y="-8" type="curve" smooth="yes"/>
			<point x="703" y="-8"/>
			<point x="833" y="97"/>
			<point x="833" y="225" type="curve" smooth="yes"/>
			<point x="833" y="380"/>
			<point x="702" y="445"/>
			<point x="593" y="467" type="curve"/>
			<point x="765" y="725" type="line"/>
			<point x="750" y="760" type="line"/>
			<point x="109" y="760" type="line" name="_corner00"/>
		</contour>
	</outline>
</glyph>
<glyph name="endash" format="2">
	<advance width="622"/>
	<unicode hex="2013"/>
	<outline>
		<contour>
			<point x="61" y="300" type="line"/>
			<point x="61" y="220" type="line" name="_corner00"/>
			<point x="561" y="220" type="line"/>
			<point x="561" y="300" type="line" name="_corner01"/>
		</contour>
	</outline>
</glyph>
<glyph name="perthousand" format="2">
	<advance width="1437"/>
	<unicode hex="2030"/>
	<outline>
		<contour>
			<point x="185" y="-35" type="line" name="_corner01"/>
			<point x="885" y="715" type="line"/>
			<point x="800" y="795" type="line" name="_corner00"/>
			<point x="100" y="45" type="line"/>
		</contour>
		<contour>
			<point x="208" y="380" type="curve" smooth="yes"/>
			<point x="317" y="380"/>
			<point x="413" y="460"/>
			<point x="421" y="580" type="curve" smooth="yes"/>
			<point x="429" y="700"/>
			<point x="345" y="780"/>
			<point x="234" y="780" type="curve" smooth="yes"/>
			<point x="125" y="780"/>
			<point x="29" y="700"/>
			<point x="21" y="580" type="curve" smooth="yes"/>
			<point x="13" y="460"/>
			<point x="97" y="380"/>
		</contour>
		<contour>
			<point x="227" y="490" type="curve" smooth="yes"/>
			<point x="178" y="490"/>
			<point x="138" y="523"/>
			<point x="135" y="580" type="curve" smooth="yes"/>
			<point x="131" y="637"/>
			<point x="166" y="670"/>
			<point x="215" y="670" type="curve" smooth="yes"/>
			<point x="264" y="670"/>
			<point x="304" y="637"/>
			<point x="307" y="580" type="curve" smooth="yes"/>
			<point x="311" y="523"/>
			<point x="276" y="490"/>
		</contour>
		<contour>
			<point x="753" y="-20" type="curve" smooth="yes"/>
			<point x="862" y="-20"/>
			<point x="958" y="60"/>
			<point x="966" y="180" type="curve" smooth="yes"/>
			<point x="974" y="300"/>
			<point x="890" y="380"/>
			<point x="779" y="380" type="curve" smooth="yes"/>
			<point x="670" y="380"/>
			<point x="574" y="300"/>
			<point x="566" y="180" type="curve" smooth="yes"/>
			<point x="558" y="60"/>
			<point x="642" y="-20"/>
		</contour>
		<contour>
			<point x="772" y="90" type="curve" smooth="yes"/>
			<point x="723" y="90"/>
			<point x="683" y="123"/>
			<point x="680" y="180" type="curve" smooth="yes"/>
			<point x="676" y="237"/>
			<point x="711" y="270"/>
			<point x="760" y="270" type="curve" smooth="yes"/>
			<point x="809" y="270"/>
			<point x="849" y="237"/>
			<point x="852" y="180" type="curve" smooth="yes"/>
			<point x="856" y="123"/>
			<point x="821" y="90"/>
		</contour>
		<contour>
			<point x="1203" y="-20" type="curve" smooth="yes"/>
			<point x="1312" y="-20"/>
			<point x="1408" y="60"/>
			<point x="1416" y="180" type="curve" smooth="yes"/>
			<point x="1424" y="300"/>
			<point x="1340" y="380"/>
			<point x="1229" y="380" type="curve" smooth="yes"/>
			<point x="1120" y="380"/>
			<point x="1024" y="300"/>
			<point x="1016" y="180" type="curve" smooth="yes"/>
			<point x="1008" y="60"/>
			<point x="1092" y="-20"/>
		</contour>
		<contour>
			<point x="1222" y="90" type="curve" smooth="yes"/>
			<point x="1173" y="90"/>
			<point x="1133" y="123"/>
			<point x="1130" y="180" type="curve" smooth="yes"/>
			<point x="1126" y="237"/>
			<point x="1161" y="270"/>
			<point x="1210" y="270" type="curve" smooth="yes"/>
			<point x="1259" y="270"/>
			<point x="1299" y="237"/>
			<point x="1302" y="180" type="curve" smooth="yes"/>
			<point x="1306" y="123"/>
			<point x="1271" y="90"/>
		</contour>
	</outline>
</glyph>
<glyph name="guilsinglleft" format="2">
	<advance width="320"/>
	<unicode hex="2039"/>
	<outline>
		<contour>
			<point x="229" y="70" type="curve" smooth="yes"/>
			<point x="87" y="241" type="line" smooth="yes"/>
			<point x="65" y="267"/>
			<point x="65" y="273"/>
			<point x="87" y="299" type="curve" smooth="yes"/>
			<point x="229" y="470" type="line" smooth="yes"/>
			<point x="240" y="484"/>
			<point x="297" y="444"/>
			<point x="289" y="430" type="curve" smooth="yes"/>
			<point x="204" y="270" type="line"/>
			<point x="289" y="110" type="line" smooth="yes"/>
			<point x="297" y="96"/>
			<point x="240" y="56"/>
		</contour>
	</outline>
</glyph>
<glyph name="euro" format="2">
	<advance width="778"/>
	<unicode hex="20AC"/>
	<outline>
		<contour>
			<point x="37" y="420" type="line" name="_corner03"/>
			<point x="517" y="420" type="line"/>
			<point x="527" y="490" type="line" name="_corner02"/>
			<point x="296" y="490" type="line"/>
			<point x="325" y="715"/>
			<point x="495" y="799"/>
			<point x="665" y="540" type="curve"/>
			<point x="725" y="560" type="line" name="_corner04"/>
			<point x="690" y="730" type="line"/>
			<point x="446" y="839"/>
			<point x="201" y="733"/>
			<point x="143" y="490" type="curve"/>
			<point x="47" y="490" type="line"/>
		</contour>
		<contour>
			<point x="507" y="340" type="line" name="_corner01"/>
			<point x="27" y="340" type="line"/>
			<point x="17" y="270" type="line" name="_corner00"/>
			<point x="141" y="270" type="line"/>
			<point x="202" y="-20"/>
			<point x="559" y="-121"/>
			<point x="750" y="145" type="curve"/>
			<point x="705" y="189" type="line" name="_corner05"/>
			<point x="570" y="43"/>
			<point x="371" y="97"/>
			<point x="314" y="270" type="curve"/>
			<point x="497" y="270" type="line"/>
		</contour>
	</outline>
</glyph>
<glyph name="trademark" format="2">
	<advance width="944"/>
	<unicode hex="2122"/>
	<outline>
		<contour>
			<point x="58" y="765" type="line" name="_corner01"/>
			<point x="45" y="655" type="line" smooth="yes"/>
			<point x="44" y="650"/>
			<point x="77" y="639"/>
			<point x="81" y="648" type="curve" smooth="yes"/>
			<point x="106" y="698"/>
			<point x="122" y="710"/>
			<point x="143" y="710" type="curve" smooth="yes"/>
			<point x="187" y="710"/>
			<point x="186" y="710"/>
			<point x="186" y="685" type="curve" smooth="yes"/>
			<point x="186" y="496" type="line" smooth="yes"/>
			<point x="186" y="460"/>
			<point x="181" y="459"/>
			<point x="149" y="440" type="curve" smooth="yes"/>
			<point x="145" y="438"/>
			<point x="149" y="410"/>
			<point x="154" y="410" type="curve" smooth="yes"/>
			<point x="195" y="410" type="line"/>
			<point x="262" y="410" type="line" smooth="yes"/>
			<point x="264" y="410"/>
			<point x="265" y="410"/>
			<point x="267" y="410" type="curve" smooth="yes"/>
			<point x="308" y="410" type="line" smooth="yes"/>
			<point x="313" y="410"/>
			<point x="317" y="438"/>
			<point x="313" y="440" type="curve" smooth="yes"/>
			<point x="281" y="459"/>
			<point x="276" y="460"/>
			<point x="276" y="496" type="curve" smooth="yes"/>
			<point x="276" y="685" type="line" smooth="yes"/>
			<point x="276" y="710"/>
			<point x="275" y="710"/>
			<point x="318" y="710" type="curve" smooth="yes"/>
			<point x="339" y="710"/>
			<point x="356" y="699"/>
			<point x="380" y="648" type="curve" smooth="yes"/>
			<point x="385" y="639"/>
			<point x="417" y="650"/>
			<point x="416" y="655" type="curve" smooth="yes"/>
			<point x="403" y="765" type="line" name="_corner00"/>
			<point x="323" y="760" type="line"/>
			<point x="138" y="760" type="line"/>
		</contour>
		<contour>
			<point x="431" y="440" type="curve" smooth="yes"/>
			<point x="427" y="438"/>
			<point x="431" y="410"/>
			<point x="436" y="410" type="curve" smooth="yes"/>
			<point x="482" y="410" type="line"/>
			<point x="521" y="410" type="line"/>
			<point x="567" y="410" type="line" smooth="yes"/>
			<point x="572" y="410"/>
			<point x="577" y="438"/>
			<point x="572" y="440" type="curve"/>
			<point x="541" y="459"/>
			<point x="537" y="460"/>
			<point x="534" y="496" type="curve" smooth="yes"/>
			<point x="520" y="670" type="line"/>
			<point x="629" y="444" type="line" smooth="yes"/>
			<point x="633" y="437"/>
			<point x="684" y="437"/>
			<point x="687" y="444" type="curve" smooth="yes"/>
			<point x="789" y="673" type="line"/>
			<point x="776" y="496" type="line" smooth="yes"/>
			<point x="773" y="460"/>
			<point x="770" y="459"/>
			<point x="738" y="440" type="curve" smooth="yes"/>
			<point x="734" y="438"/>
			<point x="738" y="410"/>
			<point x="743" y="410" type="curve" smooth="yes"/>
			<point x="789" y="410" type="line"/>
			<point x="846" y="410" type="line"/>
			<point x="892" y="410" type="line" smooth="yes"/>
			<point x="897" y="410"/>
			<point x="901" y="438"/>
			<point x="897" y="440" type="curve" smooth="yes"/>
			<point x="865" y="459"/>
			<point x="860" y="460"/>
			<point x="860" y="496" type="curve" smooth="yes"/>
			<point x="860" y="675" type="line" smooth="yes"/>
			<point x="860" y="710"/>
			<point x="865" y="711"/>
			<point x="897" y="730" type="curve" smooth="yes"/>
			<point x="901" y="733"/>
			<point x="897" y="760"/>
			<point x="892" y="760" type="curve" smooth="yes"/>
			<point x="864" y="760"/>
			<point x="856" y="759"/>
			<point x="846" y="759" type="curve" smooth="yes"/>
			<point x="760" y="759" type="line"/>
			<point x="678" y="542" type="line"/>
			<point x="580" y="759" type="line"/>
			<point x="482" y="759" type="line" smooth="yes"/>
			<point x="472" y="759"/>
			<point x="464" y="760"/>
			<point x="436" y="760" type="curve" smooth="yes"/>
			<point x="431" y="760"/>
			<point x="427" y="733"/>
			<point x="431" y="730" type="curve" smooth="yes"/>
			<point x="463" y="711"/>
			<point x="468" y="710"/>
			<point x="468" y="675" type="curve" smooth="yes"/>
			<point x="468" y="496" type="line" smooth="yes"/>
			<point x="468" y="460"/>
			<point x="463" y="459"/>
		</contour>
	</outline>
</glyph>
<glyph name="Q.ss01" format="2">
	<advance width="880"/>
	<anchor x="440" y="0" name="bottom"/>
	<anchor x="440" y="760" name="top"/>
	<outline>
		<contour>
			<point x="426" y="-10" type="curve" smooth="yes"/>
			<point x="641" y="-10"/>
			<point x="830" y="163"/>
			<point x="830" y="385" type="curve" smooth="yes"/>
			<point x="830" y="613"/>
			<point x="659" y="770"/>
			<point x="454" y="770" type="curve" smooth="yes"/>
			<point x="239" y="770"/>
			<point x="50" y="597"/>
			<point x="50" y="375" type="curve" smooth="yes"/>
			<point x="50" y="147"/>
			<point x="221" y="-10"/>
		</contour>
		<contour>
			<point x="453" y="77" type="curve" smooth="yes"/>
			<point x="291" y="77"/>
			<point x="214" y="253"/>
			<point x="214" y="408" type="curve" smooth="yes"/>
			<point x="214" y="601"/>
			<point x="318" y="683"/>
			<point x="427" y="683" type="curve" smooth="yes"/>
			<point x="589" y="683"/>
			<point x="666" y="507"/>
			<point x="666" y="352" type="curve" smooth="yes"/>
			<point x="666" y="159"/>
			<point x="562" y="77"/>
		</contour>
		<contour>
			<point x="333" y="77" type="line"/>
			<point x="897" y="-275"/>
			<point x="954" y="-351"/>
			<point x="1185" y="-198" type="curve"/>
			<point x="1150" y="-139" type="line" name="_corner00"/>
			<point x="1029" y="-201"/>
			<point x="965" y="-136"/>
			<point x="470" y="159" type="curve"/>
		</contour>
	</outline>
</glyph>
<glyph name="_corner.beak" format="2">
	<advance width="600"/>
	<anchor x="0" y="120" name="left"/>
	<anchor x="0" y="0" name="origin"/>
	<anchor x="30" y="0" name="right"/>
	<outline>
		<contour>
			<point x="0" y="125" type="move"/>
			<point x="-2" y="90"/>
			<point x="-36" y="83"/>
			<point x="-105" y="40" type="curve" smooth="yes"/>
			<point x="-117" y="33"/>
			<point x="-91" y="-4"/>
			<point x="-81" y="-4" type="curve"/>
			<point x="-36" y="-2"/>
			<point x="-10" y="0"/>
			<point x="35" y="0" type="curve"/>
		</contour>
	</outline>
</glyph>
<glyph name="_corner.inktrap" format="2">
	<advance width="600"/>
	<anchor x="0" y="10" name="left"/>
	<anchor x="0" y="0" name="origin"/>
	<anchor x="10" y="0" name="right"/>
	<outline>
		<contour>
			<point x="0" y="1" type="move"/>
			<point x="1" y="0" type="line"/>
		</contour>
	</outline>
</glyph>
<glyph name="_corner.mitre" format="2">
	<advance width="600"/>
	<outline>
		<contour>
			<point x="20" y="0" type="move"/>
			<point x="0" y="20" type="line"/>
		</contour>
	</outline>
</glyph>
<glyph name="_corner.serif" format="2">
	<advance width="600"/>
	<anchor x="0" y="60" name="left"/>
	<anchor x="0" y="0" name="origin"/>
	<anchor x="20" y="0" name="right"/>
	<outline>
		<contour>
			<point x="0" y="145" type="move"/>
			<point x="0" y="80"/>
			<point x="-14" y="78"/>
			<point x="-93" y="44" type="curve" smooth="yes"/>
			<point x="-104" y="39"/>
			<point x="-93" y="-1"/>
			<point x="-80" y="-1" type="curve" smooth="yes"/>
			<point x="-10" y="-1"/>
			<point x="10" y="0"/>
			<point x="35" y="0" type="curve"/>
		</contour>
	</outline>
</glyph>
<glyph name="_segment.bulge" format="2">
	<advance width="600"/>
	<anchor x="50" y="0" name="end"/>
	<anchor x="0" y="0" name="start"/>
	<outline>
		<contour>
			<point x="0" y="0" type="move"/>
			<point x="0" y="-15"/>
			<point x="50" y="-15"/>
			<point x="50" y="0" type="curve"/>
		</contour>
	</outline>
</glyph>
<glyph name="caroncomb.alt" format="2">
	<advance width="248"/>
	<anchor x="30" y="800" name="_topright"/>
	<outline>
		<contour>
			<point x="108" y="561" type="curve"/>
			<point x="158" y="661"/>
			<point x="193" y="732"/>
			<point x="198" y="751" type="curve"/>
			<point x="190" y="772"/>
			<point x="100" y="799"/>
			<point x="82" y="784" type="curve"/>
			<point x="77" y="766"/>
			<point x="62" y="688"/>
			<point x="50" y="581" type="curve"/>
			<point x="47" y="569"/>
			<point x="103" y="552"/>
		</contour>
	</outline>
</glyph>
<glyph name="eight.lf" format="2">
	<advance width="560"/>
	<outline>
		<contour>
			<point x="268" y="-11" type="curve" smooth="yes"/>
			<point x="387" y="-11"/>
			<point x="510" y="59"/>
			<point x="510" y="195" type="curve" smooth="yes"/>
			<point x="510" y="407"/>
			<point x="200" y="486"/>
			<point x="200" y="620" type="curve" smooth="yes"/>
			<point x="200" y="677"/>
			<point x="235" y="709"/>
			<point x="281" y="709" type="curve" smooth="yes"/>
			<point x="330" y="709"/>
			<point x="370" y="672"/>
			<point x="370" y="590" type="curve" smooth="yes"/>
			<point x="370" y="400"/>
			<point x="50" y="395"/>
			<point x="50" y="185" type="curve" smooth="yes"/>
			<point x="50" y="50"/>
			<point x="157" y="-11"/>
		</contour>
		<contour>
			<point x="390" y="89"/>
			<point x="335" y="51"/>
			<point x="280" y="51" type="curve" smooth="yes"/>
			<point x="225" y="51"/>
			<point x="170" y="89"/>
			<point x="170" y="185" type="curve" smooth="yes"/>
			<point x="170" y="395"/>
			<point x="480" y="410"/>
			<point x="480" y="600" type="curve" smooth="yes"/>
			<point x="480" y="715"/>
			<point x="382" y="770"/>
			<point x="291" y="770" type="curve" smooth="yes"/>
			<point x="183" y="770"/>
			<point x="80" y="707"/>
			<point x="80" y="590" type="curve" smooth="yes"/>
			<point x="80" y="380"/>
			<point x="390" y="305"/>
			<point x="390" y="155" type="curve" smooth="yes"/>
		</contour>
	</outline>
</glyph>
<glyph name="eight.osf" format="2">
	<advance width="520"/>
	<outline>
		<contour>
			<point x="248" y="-11" type="curve" smooth="yes"/>
			<point x="367" y="-11"/>
			<point x="490" y="59"/>
			<point x="490" y="195" type="curve" smooth="yes"/>
			<point x="490" y="407"/>
			<point x="180" y="486"/>
			<point x="180" y="620" type="curve" smooth="yes"/>
			<point x="180" y="677"/>
			<point x="215" y="709"/>
			<point x="261" y="709" type="curve" smooth="yes"/>
			<point x="310" y="709"/>
			<point x="350" y="672"/>
			<point x="350" y="590" type="curve" smooth="yes"/>
			<point x="350" y="400"/>
			<point x="30" y="395"/>
			<point x="30" y="185" type="curve" smooth="yes"/>
			<point x="30" y="50"/>
			<point x="137" y="-11"/>
		</contour>
		<contour>
			<point x="370" y="89"/>
			<point x="315" y="51"/>
			<point x="260" y="51" type="curve" smooth="yes"/>
			<point x="205" y="51"/>
			<point x="150" y="89"/>
			<point x="150" y="185" type="curve" smooth="yes"/>
			<point x="150" y="395"/>
			<point x="460" y="410"/>
			<point x="460" y="600" type="curve" smooth="yes"/>
			<point x="460" y="715"/>
			<point x="362" y="770"/>
			<point x="271" y="770" type="curve" smooth="yes"/>
			<point x="163" y="770"/>
			<point x="60" y="707"/>
			<point x="60" y="590" type="curve" smooth="yes"/>
			<point x="60" y="380"/>
			<point x="370" y="305"/>
			<point x="370" y="155" type="curve" smooth="yes"/>
		</contour>
	</outline>
</glyph>
<glyph name="f_i.liga" format="2">
	<advance width="719"/>
	<anchor x="180" y="0" name="bottom_1"/>
	<anchor x="539" y="0" name="bottom_2"/>
	<anchor x="359.5" y="0" name="caret_1"/>
	<anchor x="180" y="800" name="top_1"/>
	<anchor x="539" y="800" name="top_2"/>
	<outline>
		<contour>
			<point x="326" y="687" type="curve" smooth="yes"/>
			<point x="364" y="687"/>
			<point x="423" y="665"/>
			<point x="512" y="618" type="curve" smooth="yes"/>
			<point x="558" y="594"/>
			<point x="619" y="719"/>
			<point x="586" y="745" type="curve" smooth="yes"/>
			<point x="535" y="785"/>
			<point x="472" y="805"/>
			<point x="409" y="805" type="curve" smooth="yes"/>
			<point x="266" y="805"/>
			<point x="122" y="704"/>
			<point x="122" y="517" type="curve" smooth="yes"/>
			<point x="122" y="0" type="line" name="_corner00"/>
			<point x="257" y="0" type="line" name="_corner01"/>
			<point x="257" y="559" type="line" smooth="yes"/>
			<point x="257" y="640"/>
			<point x="269" y="687"/>
		</contour>
		<contour>
			<point x="41" y="480" type="line"/>
			<point x="41" y="410" type="line" name="_corner02"/>
			<point x="591" y="410" type="line"/>
			<point x="591" y="500" type="line" name="_corner03"/>
			<point x="131" y="490" type="line"/>
		</contour>
		<contour>
			<point x="486" y="0" type="line" name="_corner06"/>
			<point x="611" y="0" type="line" name="_corner04"/>
			<point x="611" y="515" type="line" name="_corner05"/>
			<point x="581" y="503"/>
			<point x="517" y="482"/>
			<point x="486" y="470" type="curve"/>
		</contour>
	</outline>
</glyph>
<glyph name="f_j.liga" format="2">
	<advance width="709"/>
	<anchor x="177" y="0" name="bottom_1"/>
	<anchor x="532" y="0" name="bottom_2"/>
	<anchor x="354.5" y="0" name="caret_1"/>
	<anchor x="177" y="800" name="top_1"/>
	<anchor x="532" y="800" name="top_2"/>
	<outline>
		<contour>
			<point x="326" y="687" type="curve" smooth="yes"/>
			<point x="364" y="687"/>
			<point x="423" y="665"/>
			<point x="512" y="618" type="curve" smooth="yes"/>
			<point x="558" y="594"/>
			<point x="619" y="719"/>
			<point x="586" y="745" type="curve" smooth="yes"/>
			<point x="535" y="785"/>
			<point x="472" y="805"/>
			<point x="409" y="805" type="curve" smooth="yes"/>
			<point x="266" y="805"/>
			<point x="122" y="704"/>
			<point x="122" y="517" type="curve" smooth="yes"/>
			<point x="122" y="0" type="line" name="_corner00"/>
			<point x="257" y="0" type="line" name="_corner01"/>
			<point x="257" y="559" type="line" smooth="yes"/>
			<point x="257" y="640"/>
			<point x="269" y="687"/>
		</contour>
		<contour>
			<point x="41" y="480" type="line"/>
			<point x="41" y="410" type="line" name="_corner02"/>
			<point x="611" y="410" type="line"/>
			<point x="611" y="500" type="line" name="_corner03"/>
			<point x="131" y="490" type="line"/>
		</contour>
		<contour>
			<point x="392" y="-202" type="curve"/>
			<point x="433" y="-260" type="line" name="_corner04"/>
			<point x="558" y="-193"/>
			<point x="624" y="-138"/>
			<point x="624" y="-27" type="curve" smooth="yes"/>
			<point x="624" y="515" type="line" name="_corner05"/>
			<point x="594" y="503"/>
			<point x="535" y="486"/>
			<point x="494" y="470" type="curve"/>
			<point x="494" y="-9" type="line" smooth="yes"/>
			<point x="494" y="-104"/>
			<point x="479" y="-147"/>
		</contour>
	</outline>
</glyph>
<glyph name="five.lf" format="2">
	<advance width="544"/>
	<outline>
		<contour>
			<point x="73" y="-6" type="curve" smooth="yes"/>
			<point x="306" y="-47"/>
			<point x="473" y="105"/>
			<point x="473" y="259" type="curve" smooth="yes"/>
			<point x="473" y="361"/>
			<point x="400" y="516"/>
			<point x="193" y="509" type="curve"/>
			<point x="212" y="613" type="line"/>
			<point x="455" y="613" type="line" name="_corner00"/>
			<point x="493" y="783" type="line"/>
			<point x="458" y="807" type="line" name="_corner01"/>
			<point x="433" y="777"/>
			<point x="431" y="759"/>
			<point x="349" y="759" type="curve" smooth="yes"/>
			<point x="159" y="759" type="line"/>
			<point x="91" y="365" type="line" name="_corner02"/>
			<point x="263" y="399"/>
			<point x="337" y="308"/>
			<point x="337" y="221" type="curve" smooth="yes"/>
			<point x="337" y="113"/>
			<point x="248" y="50"/>
			<point x="91" y="144" type="curve" smooth="yes"/>
			<point x="55" y="166"/>
			<point x="30" y="2"/>
		</contour>
	</outline>
</glyph>
<glyph name="five.osf" format="2">
	<advance width="426"/>
	<outline>
		<contour>
			<point x="33" y="135" type="line" name="_corner02"/>
			<point x="300" y="115"/>
			<point x="288" y="-206"/>
			<point x="21" y="-186" type="curve" smooth="yes"/>
			<point x="3" y="-185"/>
			<point x="2" y="-255"/>
			<point x="16" y="-256" type="curve" smooth="yes"/>
			<point x="412" y="-291"/>
			<point x="521" y="194"/>
			<point x="135" y="259" type="curve"/>
			<point x="149" y="353" type="line"/>
			<point x="357" y="353" type="line" name="_corner00"/>
			<point x="395" y="523" type="line"/>
			<point x="360" y="547" type="line" name="_corner01"/>
			<point x="335" y="517"/>
			<point x="333" y="499"/>
			<point x="251" y="499" type="curve" smooth="yes"/>
			<point x="111" y="499" type="line"/>
		</contour>
	</outline>
</glyph>
<glyph name="four.lf" format="2">
	<advance width="653"/>
	<outline>
		<contour>
			<point x="507" y="0" type="line"/>
			<point x="507" y="200" type="line"/>
			<point x="595" y="200" type="line"/>
			<point x="605" y="320" type="line" name="_corner00"/>
			<point x="507" y="305" type="line"/>
			<point x="507" y="590" type="line"/>
			<point x="510" y="760" type="line" smooth="yes"/>
			<point x="510" y="775"/>
			<point x="435" y="790"/>
			<point x="429" y="780" type="curve" smooth="yes"/>
			<point x="343" y="633" type="line"/>
			<point x="55" y="268" type="line" smooth="yes"/>
			<point x="44" y="254"/>
			<point x="51" y="200"/>
			<point x="67" y="200" type="curve" smooth="yes"/>
			<point x="398" y="200" type="line"/>
			<point x="398" y="303" type="line"/>
			<point x="186" y="300" type="line"/>
			<point x="367" y="545" type="line"/>
			<point x="367" y="0" type="line"/>
		</contour>
	</outline>
</glyph>
<glyph name="four.osf" format="2">
	<advance width="583"/>
	<outline>
		<contour>
			<point x="427" y="-250" type="line"/>
			<point x="427" y="0" type="line"/>
			<point x="515" y="0" type="line"/>
			<point x="525" y="120" type="line" name="_corner00"/>
			<point x="427" y="105" type="line"/>
			<point x="427" y="340" type="line"/>
			<point x="430" y="480" type="line" smooth="yes"/>
			<point x="430" y="495"/>
			<point x="346" y="520"/>
			<point x="339" y="510" type="curve" smooth="yes"/>
			<point x="263" y="393" type="line"/>
			<point x="25" y="68" type="line" smooth="yes"/>
			<point x="15" y="54"/>
			<point x="21" y="0"/>
			<point x="37" y="0" type="curve" smooth="yes"/>
			<point x="318" y="0" type="line"/>
			<point x="318" y="103" type="line"/>
			<point x="136" y="100" type="line"/>
			<point x="287" y="315" type="line"/>
			<point x="287" y="-250" type="line"/>
		</contour>
	</outline>
</glyph>
<glyph name="nine.lf" format="2">
	<advance width="640"/>
	<outline>
		<contour>
			<point x="143" y="49" type="curve"/>
			<point x="184" y="-5" type="line" name="_corner00"/>
			<point x="473" y="149"/>
			<point x="590" y="359"/>
			<point x="590" y="519" type="curve" smooth="yes"/>
			<point x="590" y="685"/>
			<point x="490" y="807"/>
			<point x="331" y="807" type="curve" smooth="yes"/>
			<point x="160" y="807"/>
			<point x="50" y="682"/>
			<point x="50" y="552" type="curve" smooth="yes"/>
			<point x="50" y="401"/>
			<point x="148" y="304"/>
			<point x="294" y="304" type="curve" smooth="yes"/>
			<point x="346" y="304"/>
			<point x="401" y="321"/>
			<point x="449" y="358" type="curve"/>
			<point x="455" y="436" type="line"/>
			<point x="428" y="397"/>
			<point x="379" y="383"/>
			<point x="342" y="383" type="curve" smooth="yes"/>
			<point x="153" y="383"/>
			<point x="160" y="728"/>
			<point x="312" y="728" type="curve" smooth="yes"/>
			<point x="390" y="728"/>
			<point x="433" y="655"/>
			<point x="433" y="512" type="curve" smooth="yes"/>
			<point x="433" y="373"/>
			<point x="365" y="204"/>
		</contour>
	</outline>
</glyph>
<glyph name="nine.osf" format="2">
	<advance width="592"/>
	<outline>
		<contour>
			<point x="99" y="-207" type="curve"/>
			<point x="133" y="-258" type="line" name="_corner00"/>
			<point x="400" y="-127"/>
			<point x="537" y="85"/>
			<point x="537" y="244" type="curve" smooth="yes"/>
			<point x="537" y="395"/>
			<point x="438" y="510"/>
			<point x="306" y="510" type="curve" smooth="yes"/>
			<point x="126" y="510"/>
			<point x="44" y="390"/>
			<point x="44" y="271" type="curve" smooth="yes"/>
			<point x="44" y="129"/>
			<point x="162" y="-12"/>
			<point x="373" y="56" type="curve"/>
			<point x="382" y="119" type="line" name="_corner01"/>
			<point x="240" y="86"/>
			<point x="176" y="190"/>
			<point x="176" y="287" type="curve" smooth="yes"/>
			<point x="176" y="480"/>
			<point x="398" y="497"/>
			<point x="398" y="247" type="curve" smooth="yes"/>
			<point x="398" y="88"/>
			<point x="296" y="-83"/>
		</contour>
	</outline>
</glyph>
<glyph name="one.lf" format="2">
	<advance width="454"/>
	<outline>
		<contour>
			<point x="156" y="555" type="curve" smooth="yes"/>
			<point x="156" y="0" type="line" name="_corner00"/>
			<point x="306" y="0" type="line" name="_corner01"/>
			<point x="306" y="780" type="line" name="_corner02"/>
			<point x="164" y="723" type="line" smooth="yes"/>
			<point x="141" y="714"/>
			<point x="122" y="708"/>
			<point x="57" y="682" type="curve" smooth="yes"/>
			<point x="45" y="677"/>
			<point x="51" y="632"/>
			<point x="63" y="631" type="curve" smooth="yes"/>
			<point x="150" y="625"/>
			<point x="156" y="627"/>
		</contour>
	</outline>
</glyph>
<glyph name="one.osf" format="2">
	<advance width="398"/>
	<outline>
		<contour>
			<point x="124" y="500" type="line" name="_corner03"/>
			<point x="124" y="0" type="line" name="_corner00"/>
			<point x="274" y="0" type="line" name="_corner01"/>
			<point x="274" y="500" type="line" name="_corner02"/>
		</contour>
	</outline>
</glyph>
<glyph name="seven.lf" format="2">
	<advance width="555"/>
	<outline>
		<contour>
			<point x="86" y="760" type="line" name="_corner02"/>
			<point x="50" y="585" type="line"/>
			<point x="110" y="571" type="line" name="_corner00"/>
			<point x="142" y="633"/>
			<point x="174" y="631"/>
			<point x="276" y="635" type="curve" smooth="yes"/>
			<point x="400" y="640" type="line"/>
			<point x="123" y="0" type="line" name="_corner01"/>
			<point x="311" y="0" type="line"/>
			<point x="505" y="735" type="line"/>
			<point x="490" y="760" type="line"/>
		</contour>
	</outline>
</glyph>
<glyph name="seven.osf" format="2">
	<advance width="505"/>
	<outline>
		<contour>
			<point x="56" y="500" type="line" name="_corner02"/>
			<point x="20" y="325" type="line"/>
			<point x="80" y="311" type="line" name="_corner00"/>
			<point x="112" y="373"/>
			<point x="144" y="371"/>
			<point x="246" y="375" type="curve" smooth="yes"/>
			<point x="370" y="380" type="line"/>
			<point x="83" y="-250" type="line" name="_corner01"/>
			<point x="271" y="-250" type="line"/>
			<point x="475" y="475" type="line"/>
			<point x="460" y="510" type="line"/>
			<point x="255" y="500" type="line"/>
		</contour>
	</outline>
</glyph>
<glyph name="six.lf" format="2">
	<advance width="640"/>
	<outline>
		<contour>
			<point x="497" y="752" type="curve"/>
			<point x="456" y="806" type="line" name="_corner00"/>
			<point x="167" y="652"/>
			<point x="50" y="442"/>
			<point x="50" y="282" type="curve" smooth="yes"/>
			<point x="50" y="116"/>
			<point x="150" y="-6"/>
			<point x="309" y="-6" type="curve" smooth="yes"/>
			<point x="480" y="-6"/>
			<point x="590" y="119"/>
			<point x="590" y="249" type="curve" smooth="yes"/>
			<point x="590" y="400"/>
			<point x="492" y="497"/>
			<point x="346" y="497" type="curve" smooth="yes"/>
			<point x="294" y="497"/>
			<point x="239" y="480"/>
			<point x="191" y="443" type="curve"/>
			<point x="185" y="365" type="line"/>
			<point x="212" y="404"/>
			<point x="261" y="418"/>
			<point x="298" y="418" type="curve" smooth="yes"/>
			<point x="487" y="418"/>
			<point x="480" y="73"/>
			<point x="328" y="73" type="curve" smooth="yes"/>
			<point x="250" y="73"/>
			<point x="207" y="146"/>
			<point x="207" y="289" type="curve" smooth="yes"/>
			<point x="207" y="428"/>
			<point x="275" y="597"/>
		</contour>
	</outline>
</glyph>
<glyph name="six.osf" format="2">
	<advance width="592"/>
	<outline>
		<contour>
			<point x="493" y="707" type="curve"/>
			<point x="459" y="758" type="line" name="_corner00"/>
			<point x="192" y="627"/>
			<point x="55" y="415"/>
			<point x="55" y="256" type="curve" smooth="yes"/>
			<point x="55" y="105"/>
			<point x="154" y="-10"/>
			<point x="286" y="-10" type="curve" smooth="yes"/>
			<point x="467" y="-10"/>
			<point x="552" y="112"/>
			<point x="552" y="232" type="curve" smooth="yes"/>
			<point x="552" y="348"/>
			<point x="473" y="462"/>
			<point x="326" y="462" type="curve" smooth="yes"/>
			<point x="293" y="462"/>
			<point x="258" y="456"/>
			<point x="219" y="444" type="curve"/>
			<point x="210" y="381" type="line"/>
			<point x="227" y="385"/>
			<point x="243" y="387"/>
			<point x="258" y="387" type="curve" smooth="yes"/>
			<point x="360" y="387"/>
			<point x="410" y="292"/>
			<point x="410" y="205" type="curve" smooth="yes"/>
			<point x="410" y="133"/>
			<point x="376" y="67"/>
			<point x="309" y="67" type="curve" smooth="yes"/>
			<point x="252" y="67"/>
			<point x="204" y="124"/>
			<point x="204" y="253" type="curve" smooth="yes"/>
			<point x="204" y="412"/>
			<point x="296" y="583"/>
		</contour>
	</outline>
</glyph>
<glyph name="three.lf" format="2">
	<advance width="501"/>
	<outline>
		<contour>
			<point x="52" y="641" type="curve"/>
			<point x="93" y="601" type="line" name="_corner00"/>
			<point x="122" y="627"/>
			<point x="151" y="638"/>
			<point x="178" y="638" type="curve" smooth="yes"/>
			<point x="234" y="638"/>
			<point x="278" y="589"/>
			<point x="278" y="537" type="curve" smooth="yes"/>
			<point x="278" y="492"/>
			<point x="246" y="445"/>
			<point x="163" y="425" type="curve"/>
			<point x="174" y="349" type="line" name="_corner01"/>
			<point x="263" y="351"/>
			<point x="316" y="275"/>
			<point x="316" y="207" type="curve" smooth="yes"/>
			<point x="316" y="134"/>
			<point x="255" y="72"/>
			<point x="113" y="132" type="curve" smooth="yes"/>
			<point x="81" y="146"/>
			<point x="38" y="42"/>
			<point x="54" y="21" type="curve" smooth="yes"/>
			<point x="119" y="-63"/>
			<point x="451" y="42"/>
			<point x="451" y="248" type="curve" smooth="yes"/>
			<point x="451" y="335"/>
			<point x="398" y="408"/>
			<point x="308" y="433" type="curve"/>
			<point x="374" y="467"/>
			<point x="427" y="521"/>
			<point x="427" y="609" type="curve" smooth="yes"/>
			<point x="427" y="702"/>
			<point x="347" y="770"/>
			<point x="249" y="770" type="curve" smooth="yes"/>
			<point x="156" y="770"/>
			<point x="98" y="704"/>
		</contour>
	</outline>
</glyph>
<glyph name="three.osf" format="2">
	<advance width="454"/>
	<outline>
		<contour>
			<point x="14" y="-239" type="curve" smooth="yes"/>
			<point x="79" y="-323"/>
			<point x="411" y="-218"/>
			<point x="411" y="-12" type="curve" smooth="yes"/>
			<point x="411" y="75"/>
			<point x="358" y="148"/>
			<point x="268" y="173" type="curve"/>
			<point x="334" y="207"/>
			<point x="387" y="261"/>
			<point x="387" y="349" type="curve" smooth="yes"/>
			<point x="387" y="442"/>
			<point x="307" y="510"/>
			<point x="209" y="510" type="curve" smooth="yes"/>
			<point x="116" y="510"/>
			<point x="48" y="454"/>
			<point x="2" y="391" type="curve"/>
			<point x="53" y="341" type="line" name="_corner00"/>
			<point x="82" y="367"/>
			<point x="111" y="378"/>
			<point x="138" y="378" type="curve" smooth="yes"/>
			<point x="194" y="378"/>
			<point x="238" y="329"/>
			<point x="238" y="277" type="curve" smooth="yes"/>
			<point x="238" y="232"/>
			<point x="206" y="185"/>
			<point x="123" y="165" type="curve"/>
			<point x="134" y="89" type="line" name="_corner01"/>
			<point x="223" y="91"/>
			<point x="276" y="15"/>
			<point x="276" y="-53" type="curve" smooth="yes"/>
			<point x="276" y="-105"/>
			<point x="245" y="-152"/>
			<point x="174" y="-152" type="curve" smooth="yes"/>
			<point x="147" y="-152"/>
			<point x="113" y="-145"/>
			<point x="73" y="-128" type="curve" smooth="yes"/>
			<point x="41" y="-114"/>
			<point x="-2" y="-218"/>
		</contour>
	</outline>
</glyph>
<glyph name="two.lf" format="2">
	<advance width="612"/>
	<outline>
		<contour>
			<point x="70" y="-1" type="curve" smooth="yes"/>
			<point x="505" y="-1" type="line" name="_corner00"/>
			<point x="561" y="169" type="line"/>
			<point x="513" y="193" type="line" name="_corner01"/>
			<point x="486" y="163"/>
			<point x="472" y="135"/>
			<point x="370" y="135" type="curve" smooth="yes"/>
			<point x="220" y="135" type="line"/>
			<point x="425" y="314"/>
			<point x="514" y="418"/>
			<point x="514" y="539" type="curve" smooth="yes"/>
			<point x="514" y="677"/>
			<point x="409" y="769"/>
			<point x="289" y="769" type="curve" smooth="yes"/>
			<point x="208" y="769"/>
			<point x="119" y="726"/>
			<point x="54" y="631" type="curve"/>
			<point x="95" y="591" type="line" name="_corner02"/>
			<point x="132" y="622"/>
			<point x="177" y="638"/>
			<point x="220" y="638" type="curve" smooth="yes"/>
			<point x="294" y="638"/>
			<point x="359" y="589"/>
			<point x="359" y="482" type="curve" smooth="yes"/>
			<point x="359" y="370"/>
			<point x="266" y="281"/>
			<point x="56" y="69" type="curve" smooth="yes"/>
			<point x="41" y="53"/>
			<point x="55" y="-1"/>
		</contour>
	</outline>
</glyph>
<glyph name="two.osf" format="2">
	<advance width="551"/>
	<outline>
		<contour>
			<point x="78" y="-1" type="curve" smooth="yes"/>
			<point x="453" y="-1" type="line" name="_corner00"/>
			<point x="499" y="139" type="line"/>
			<point x="456" y="163" type="line" name="_corner01"/>
			<point x="429" y="133"/>
			<point x="404" y="118"/>
			<point x="323" y="105" type="curve" smooth="yes"/>
			<point x="228" y="90" type="line"/>
			<point x="281" y="115"/>
			<point x="422" y="198"/>
			<point x="422" y="319" type="curve" smooth="yes"/>
			<point x="422" y="432"/>
			<point x="337" y="510"/>
			<point x="239" y="510" type="curve" smooth="yes"/>
			<point x="176" y="510"/>
			<point x="107" y="477"/>
			<point x="52" y="401" type="curve"/>
			<point x="93" y="361" type="line" name="_corner02"/>
			<point x="119" y="383"/>
			<point x="148" y="393"/>
			<point x="180" y="393" type="curve" smooth="yes"/>
			<point x="232" y="393"/>
			<point x="282" y="354"/>
			<point x="282" y="287" type="curve" smooth="yes"/>
			<point x="282" y="222"/>
			<point x="227" y="135"/>
			<point x="68" y="55" type="curve" smooth="yes"/>
			<point x="54" y="49"/>
			<point x="63" y="-1"/>
		</contour>
	</outline>
</glyph>
<glyph name="zero.lf" format="2">
	<advance width="620"/>
	<outline>
		<contour>
			<point x="304" y="-10" type="curve" smooth="yes"/>
			<point x="448" y="-10"/>
			<point x="565" y="146"/>
			<point x="570" y="380" type="curve" smooth="yes"/>
			<point x="571" y="614"/>
			<point x="456" y="770"/>
			<point x="312" y="770" type="curve" smooth="yes"/>
			<point x="168" y="770"/>
			<point x="51" y="614"/>
			<point x="50" y="380" type="curve" smooth="yes"/>
			<point x="45" y="146"/>
			<point x="160" y="-10"/>
		</contour>
		<contour>
			<point x="367" y="137" type="curve" smooth="yes"/>
			<point x="218" y="137"/>
			<point x="163" y="370"/>
			<point x="163" y="494" type="curve" smooth="yes"/>
			<point x="163" y="594"/>
			<point x="209" y="623"/>
			<point x="249" y="623" type="curve" smooth="yes"/>
			<point x="397" y="623"/>
			<point x="446" y="397"/>
			<point x="446" y="267" type="curve" smooth="yes"/>
			<point x="446" y="165"/>
			<point x="407" y="137"/>
		</contour>
	</outline>
</glyph>
<glyph name="zero.osf" format="2">
	<advance width="622"/>
	<outline>
		<contour>
			<point x="293" y="-10" type="curve" smooth="yes"/>
			<point x="437" y="-10"/>
			<point x="560" y="96"/>
			<point x="571" y="250" type="curve" smooth="yes"/>
			<point x="582" y="404"/>
			<point x="473" y="510"/>
			<point x="329" y="510" type="curve" smooth="yes"/>
			<point x="185" y="510"/>
			<point x="62" y="404"/>
			<point x="51" y="250" type="curve" smooth="yes"/>
			<point x="40" y="96"/>
			<point x="149" y="-10"/>
		</contour>
		<contour>
			<point x="321" y="110" type="curve" smooth="yes"/>
			<point x="243" y="110"/>
			<point x="185" y="164"/>
			<point x="179" y="250" type="curve" smooth="yes"/>
			<point x="173" y="336"/>
			<point x="215" y="390"/>
			<point x="301" y="390" type="curve" smooth="yes"/>
			<point x="379" y="390"/>
			<point x="437" y="336"/>
			<point x="443" y="250" type="curve" smooth="yes"/>
			<point x="449" y="164"/>
			<point x="407" y="110"/>
		</contour>
	</outline>
</glyph>
